<?xml version="1.0" encoding="UTF-8"?>
<svg version="1.1" xmlns="http://www.w3.org/2000/svg" width="512" height="512">
<path d="M0 0 C0.86845047 -0.00902847 1.73690094 -0.01805695 2.63166809 -0.02735901 C4.45615218 -0.04179142 6.28068721 -0.05073068 8.10522461 -0.05444336 C10.89719428 -0.06641767 13.68700627 -0.11573363 16.47851562 -0.16601562 C18.25649969 -0.17547251 20.03449724 -0.18271105 21.8125 -0.1875 C22.64484665 -0.20703232 23.4771933 -0.22656464 24.33476257 -0.24668884 C30.09958955 -0.20165026 30.09958955 -0.20165026 33.26293945 2.78100586 C34.70703125 5.37109375 34.70703125 5.37109375 34.70703125 7.37109375 C39.32703125 7.37109375 43.94703125 7.37109375 48.70703125 7.37109375 C49.36703125 5.72109375 50.02703125 4.07109375 50.70703125 2.37109375 C53.4626502 -0.3845252 55.02387519 0.11854263 58.88544273 0.11382484 C59.52911401 0.11031877 60.17278529 0.1068127 60.83596176 0.10320038 C63.01372128 0.09382493 65.19121695 0.09882535 67.36898804 0.10366821 C68.93783781 0.09993498 70.50668572 0.09533477 72.07553065 0.08993757 C76.40326693 0.07765059 80.73092624 0.07797473 85.058676 0.08032632 C89.72013951 0.08073308 94.38157788 0.06970847 99.04302979 0.06021118 C108.18422001 0.04356649 117.32538444 0.03809998 126.46658854 0.03698643 C133.89874613 0.03603711 141.33089519 0.03193266 148.76305008 0.02558517 C169.82938601 0.0079594 190.89570153 -0.0012522 211.96204488 0.00024612 C213.66716811 0.00036599 213.66716811 0.00036599 215.40673828 0.00048828 C216.5448744 0.00057004 217.68301051 0.0006518 218.8556356 0.00073604 C237.28350378 0.0015482 255.71129007 -0.01756831 274.13913457 -0.04578845 C293.05566926 -0.07452836 311.97216404 -0.08832798 330.88872111 -0.0866009 C341.51070205 -0.08593714 352.13259728 -0.09142274 362.75455856 -0.112957 C371.80337753 -0.13118386 380.85207197 -0.13550415 389.90090136 -0.12193815 C394.51604632 -0.11541469 399.13095253 -0.11526855 403.74607468 -0.13264465 C407.97683546 -0.14840918 412.20716888 -0.14547738 416.43791945 -0.12807639 C417.96296406 -0.12501378 419.48804084 -0.12861086 421.0130475 -0.13979654 C433.88431444 -0.22789996 444.87817658 1.56563393 454.70703125 10.37109375 C455.31160156 10.87253906 455.91617187 11.37398437 456.5390625 11.890625 C462.66710592 17.37782728 467.08994742 25.27961759 468.70703125 33.37109375 C468.79972287 35.25148624 468.83788859 37.13485302 468.84125233 39.01752567 C468.84571017 40.17519351 468.85016801 41.33286135 468.85476094 42.52561003 C468.8544844 44.43457026 468.8544844 44.43457026 468.85420227 46.38209534 C468.85750215 47.74714272 468.86122798 49.11218913 468.86534375 50.4772343 C468.87535786 54.23228415 468.8790796 57.987318 468.88173306 61.74237931 C468.88563789 65.79096221 468.89521615 69.83953247 468.90394592 73.8881073 C468.92370592 83.6678139 468.93377625 93.44752152 468.94267371 103.2272431 C468.94705763 107.83373116 468.9524242 112.44021808 468.95766258 117.04670525 C468.97467488 132.36178759 468.98916857 147.67686923 468.99641132 162.99195957 C468.99832119 166.96607527 469.00024153 170.94019096 469.00219727 174.91430664 C469.00268101 175.90204332 469.00316475 176.88978001 469.00366315 177.90744811 C469.01196162 193.90445139 469.03729544 209.90137986 469.06977794 225.89835048 C469.10286176 242.32552201 469.12086131 258.75265552 469.12405556 275.17986053 C469.1262195 284.40171348 469.1349511 293.62345733 469.16051674 302.84527779 C469.18224185 310.69988887 469.19026528 318.55436436 469.18054996 326.40900207 C469.17601041 330.41445068 469.17787114 334.41961964 469.1973114 338.42502975 C469.21498107 342.09746079 469.21391503 345.76940897 469.19841411 349.44184541 C469.19492743 351.38804338 469.21103599 353.33424664 469.22801858 355.28037363 C469.13019091 368.68663853 464.93820332 377.62452497 455.8984375 387.30859375 C447.68493901 395.23180228 437.09320425 398.49992785 425.87968445 398.49134827 C425.20570974 398.49220269 424.53173503 398.49305712 423.83733684 398.49393743 C421.58643617 398.49558021 419.33561057 398.4900906 417.0847168 398.48461914 C415.46823631 398.48433698 413.85175569 398.48449556 412.23527527 398.48506165 C407.8514024 398.48534851 403.46755691 398.47946971 399.0836904 398.47248769 C394.50060398 398.46623567 389.91751692 398.46564889 385.33442688 398.46446228 C376.65767536 398.46135442 367.98093643 398.45314837 359.30419046 398.44311279 C349.42518317 398.43193474 339.54617529 398.42643693 329.66716325 398.42141736 C309.34711222 398.41096531 289.02707253 398.39337641 268.70703125 398.37109375 C268.85581079 400.78266891 269.00779234 403.19397066 269.16162109 405.60522461 C269.20322861 406.28501122 269.24483612 406.96479782 269.28770447 407.66518402 C270.53574852 427.01060142 279.89220693 445.10939286 293.7902832 458.50878906 C298.03025274 462.08209239 301.61227219 462.20567623 307 462.10546875 C307.86845047 462.11443176 308.73690094 462.12339478 309.63166809 462.13262939 C312.38666204 462.15660647 315.13953448 462.14086703 317.89453125 462.12109375 C320.65968011 462.12253757 323.42445265 462.13242179 326.18952942 462.15240479 C327.9045783 462.1625814 329.61974894 462.16091688 331.33476257 462.14593506 C338.60603786 462.1506416 338.60603786 462.1506416 341.70703125 464.37109375 C343.78862145 467.04742401 343.70290716 468.48863043 343.58203125 471.93359375 C342.70703125 475.37109375 342.70703125 475.37109375 340.92820638 477.06199312 C338.4535249 478.52050354 337.13846785 478.74833157 334.2932291 478.7542038 C332.96918453 478.76778876 332.96918453 478.76778876 331.61839157 478.78164816 C330.65293457 478.77632023 329.68747756 478.77099231 328.69276428 478.76550293 C327.66381922 478.77159403 326.63487415 478.77768514 325.57474893 478.78396082 C322.11620906 478.80065117 318.65803491 478.79580632 315.19946289 478.79101562 C312.72425451 478.79835241 310.24904956 478.80693748 307.77384949 478.81668091 C301.742106 478.836632 295.71050709 478.84227529 289.67874343 478.84049302 C284.77660012 478.83918588 279.87448683 478.84298707 274.97234917 478.85041809 C273.56080753 478.85251726 272.14926589 478.85461486 270.73772424 478.85671091 C269.68391252 478.8582762 269.68391252 478.8582762 268.60881167 478.85987312 C255.31952627 478.87877879 242.03029607 478.87772423 228.74100279 478.87090379 C216.58101203 478.86532744 204.42123191 478.88615695 192.26129038 478.91926426 C179.77787444 478.95298872 167.29455944 478.9681712 154.81109709 478.96354723 C147.80158454 478.96130135 140.7922667 478.96656291 133.78279305 478.99143982 C127.19260455 479.01462938 120.60278186 479.01188541 114.01255989 478.9915123 C111.59097963 478.98809028 109.16937017 478.9932422 106.74782944 479.00749588 C103.44746208 479.02558518 100.14860231 479.01301471 96.84828186 478.99255371 C95.88505558 479.00507156 94.92182929 479.01758941 93.92941433 479.03048658 C89.37709532 478.9697824 87.3315063 478.83185941 83.57320309 476.058815 C81.70703125 473.37109375 81.70703125 473.37109375 81.70703125 469.74609375 C82.65246884 466.55524188 83.07074572 465.26921933 85.70703125 463.37109375 C89.01404273 461.71758801 92.70318575 462.29952316 96.3359375 462.3359375 C98.1113339 462.33222148 99.88672679 462.32628943 101.66210938 462.31835938 C104.45835689 462.30784257 107.25206466 462.3083528 110.0480957 462.34692383 C122.43086717 462.92040151 122.43086717 462.92040151 133.16015625 457.7265625 C135.10111399 455.58473287 135.10111399 455.58473287 136.70703125 453.37109375 C137.20323975 452.79576904 137.69944824 452.22044434 138.21069336 451.62768555 C139.53585987 450.05122324 140.72369052 448.43955544 141.89453125 446.74609375 C142.31033447 446.15199707 142.7261377 445.55790039 143.15454102 444.94580078 C151.16217628 433.10951004 155.47345304 419.71613837 156.28125 405.4921875 C156.32358765 404.80411011 156.36592529 404.11603271 156.4095459 403.40710449 C156.51230837 401.72865082 156.61017968 400.04989887 156.70703125 398.37109375 C155.69801758 398.39204102 154.68900391 398.41298828 153.64941406 398.43457031 C149.89988438 398.5070616 146.15041643 398.55292595 142.40039062 398.59082031 C140.77853982 398.61091519 139.15676128 398.63819629 137.53515625 398.67285156 C135.20164145 398.72146645 132.86908568 398.74408264 130.53515625 398.76171875 C129.8120929 398.78236389 129.08902954 398.80300903 128.34405518 398.82427979 C124.90921051 398.82580498 123.05493635 398.63443761 120.28027344 396.53417969 C118.70703125 394.37109375 118.70703125 394.37109375 117.70703125 391.37109375 C113.08703125 391.04109375 108.46703125 390.71109375 103.70703125 390.37109375 C103.37703125 392.02109375 103.04703125 393.67109375 102.70703125 395.37109375 C100.92686703 397.58228663 99.49019241 398.26702288 96.68564034 398.63970757 C94.02849662 398.77173347 91.38919129 398.78766913 88.72875977 398.77514648 C87.2083886 398.78544136 87.2083886 398.78544136 85.65730286 398.79594421 C82.30003914 398.81427051 78.94324062 398.81036331 75.5859375 398.8046875 C73.24624988 398.80924937 70.9065636 398.81455496 68.56687927 398.8205719 C63.65496391 398.82951662 58.74321097 398.82706769 53.83129883 398.81713867 C47.56383247 398.80569929 41.29693375 398.82577652 35.02954197 398.85505581 C30.1916502 398.87349438 25.35389217 398.87310922 20.51597404 398.86741829 C18.20731757 398.86726573 15.89865165 398.8732554 13.59002876 398.88570976 C-3.35371993 398.96417586 -18.55969577 398.70186899 -31.48046875 386.265625 C-38.53580507 378.73042205 -43.53241835 370.04140251 -43.55303097 359.48415279 C-43.56362935 357.74352799 -43.56362935 357.74352799 -43.57444185 355.96773905 C-43.57081922 354.0695637 -43.57081922 354.0695637 -43.56712341 352.13304138 C-43.57157808 350.76769135 -43.57689288 349.40234391 -43.58299214 348.03700024 C-43.59715562 344.29031181 -43.59883574 340.54370641 -43.59839523 336.79699504 C-43.60004493 332.75385189 -43.61311447 328.71074279 -43.62458801 324.6676178 C-43.64742691 315.82853963 -43.65535768 306.98948548 -43.66041446 298.1503818 C-43.66367328 292.62811918 -43.67019695 287.1058635 -43.67741585 281.58360481 C-43.69698164 266.28560199 -43.71338553 250.98760564 -43.71629238 235.6895895 C-43.71647995 234.7108236 -43.71666752 233.7320577 -43.71686077 232.72363222 C-43.71722702 230.73953283 -43.71759072 228.75543344 -43.71795189 226.77133404 C-43.7181347 225.78645934 -43.71831751 224.80158463 -43.71850586 223.78686523 C-43.71868641 222.80078417 -43.71886696 221.81470312 -43.71905298 220.79874081 C-43.72259284 204.82905714 -43.7496036 188.85950846 -43.78700375 172.88987159 C-43.82511949 156.4829616 -43.8444501 140.07611852 -43.84475189 123.66916329 C-43.84533579 114.46178779 -43.85378366 105.25457327 -43.88274956 96.0472393 C-43.90730736 88.20514961 -43.91451684 80.36327958 -43.89950203 72.52116179 C-43.89235062 68.52349778 -43.89311339 64.52626714 -43.91591263 60.52865219 C-43.9366284 56.86103318 -43.93378669 53.1941772 -43.91303778 49.52656532 C-43.90793608 47.58789993 -43.9272256 45.64921628 -43.94769949 43.71065229 C-43.84747521 33.1524944 -41.41763036 22.52722126 -33.79296875 14.80859375 C-33.06078125 14.04417969 -32.32859375 13.27976562 -31.57421875 12.4921875 C-28.1076086 9.26895238 -24.6779032 6.34954686 -20.41796875 4.24609375 C-19.80179688 3.93414063 -19.185625 3.6221875 -18.55078125 3.30078125 C-12.27468301 0.7165055 -6.72771185 0.04366434 0 0 Z " fill="#000001" transform="translate(43.29296875,16.62890625)"/>
<path d="M0 0 C139.26 0 278.52 0 422 0 C422.33 49.5 422.66 99 423 150 C426.47825081 154.0745356 426.47825081 154.0745356 430 155 C430 159.95 430 164.9 430 170 C428.35 170.66 426.7 171.32 425 172 C411.54637595 185.45362405 422.34587552 209.97684647 422 229 C282.74 229 143.48 229 0 229 C0 153.43 0 77.86 0 0 Z " fill="#F4F7F7" transform="translate(45,62)"/>
<path d="M0 0 C4.62 0 9.24 0 14 0 C14.99 1.98 15.98 3.96 17 6 C19.77410007 7.38705003 22.01836398 7.12616069 25.12432194 7.12749195 C26.43947727 7.1304996 27.75463261 7.13350725 29.10964113 7.13660604 C30.58319042 7.13491824 32.0567396 7.13314717 33.5302887 7.13130188 C35.08477565 7.13300285 36.63926216 7.13515199 38.19374794 7.13771313 C41.58423454 7.14232174 44.97470286 7.14372874 48.36519241 7.14274788 C53.88106762 7.14115913 59.39692461 7.14634863 64.91279602 7.15237427 C72.92200782 7.16049762 80.93121643 7.16543472 88.94043159 7.16866493 C101.59953786 7.17415552 114.25861708 7.19104739 126.91770935 7.21000671 C131.24657912 7.21636395 135.57544897 7.22267233 139.90431881 7.22898388 C140.98626233 7.23056764 142.06820584 7.2321514 143.18293552 7.23378316 C155.5071276 7.25173047 167.83132159 7.26795106 180.15551758 7.28295898 C181.84595846 7.28502279 181.84595846 7.28502279 183.57054966 7.28712829 C201.82581183 7.30904968 220.08106707 7.31981198 238.33634008 7.32732973 C257.07095359 7.33540059 275.80550761 7.3586914 294.54008716 7.3952834 C306.09927071 7.41731386 317.65833195 7.42697136 329.21753543 7.42078307 C337.14163422 7.41760861 345.0656286 7.42893777 352.98969508 7.45167748 C357.56192509 7.46434632 362.1339225 7.47051389 366.7061615 7.45926094 C370.89422791 7.44908604 375.08184296 7.45735491 379.26985609 7.4801239 C380.78272549 7.48511447 382.29563548 7.48339736 383.8084851 7.47419123 C395.04640286 7.41119746 403.73725944 8.85319117 412.06875497 16.87647212 C418.3849526 23.82153687 419.73200596 31.28010691 419.60127258 40.37686157 C419.60555267 41.47715698 419.60983276 42.57745239 419.61424255 43.71109009 C419.62247791 47.38675221 419.59497019 51.06125947 419.56762695 54.73681641 C419.56609439 57.42135786 419.56654253 60.10583178 419.56945324 62.79036522 C419.57210312 69.23990741 419.54909948 75.6890993 419.5169466 82.13855167 C419.48084622 89.60436461 419.47696743 97.06996929 419.47302246 104.53588867 C419.44680591 124.23231435 419.37699993 143.92866249 419.3125 163.625 C419.209375 207.63875 419.10625 251.6525 419 297 C259.94 297 100.88 297 -63 297 C-63.103125 252.98625 -63.20625 208.9725 -63.3125 163.625 C-63.35802002 149.72455566 -63.40354004 135.82411133 -63.45043945 121.50244141 C-63.47302246 104.53588867 -63.47302246 104.53588867 -63.47721863 96.59457397 C-63.48187926 91.04490562 -63.50021103 85.49548925 -63.52787781 79.94589233 C-63.55975514 73.54222122 -63.57416802 67.13879158 -63.56722475 60.73504057 C-63.5642187 57.46067322 -63.5717175 54.18695295 -63.59607565 50.91265988 C-63.62098978 47.40028972 -63.61493564 43.88926338 -63.60127258 40.37686157 C-63.61583591 39.36350927 -63.63039923 38.35015697 -63.64540386 37.30609703 C-63.55958483 29.0835428 -61.08900835 22.72122909 -55.82421875 16.37890625 C-55.11910156 15.77949219 -54.41398437 15.18007813 -53.6875 14.5625 C-52.64142578 13.63630859 -52.64142578 13.63630859 -51.57421875 12.69140625 C-45.40833624 8.64007526 -39.64765558 7.56423107 -32.44921875 7.59375 C-31.66859573 7.58291382 -30.88797272 7.57207764 -30.08369446 7.56091309 C-26.77842725 7.51538741 -23.47324949 7.50350203 -20.16772461 7.48876953 C-17.74043698 7.47311114 -15.31380891 7.44014927 -12.88671875 7.40625 C-11.76640511 7.41078186 -11.76640511 7.41078186 -10.62345886 7.41540527 C-6.64825276 7.38223282 -6.64825276 7.38223282 -3.13208008 5.72460938 C-1.74474395 3.68442803 -1.74474395 3.68442803 0 0 Z M-33 38 C-33 113.57 -33 189.14 -33 267 C106.26 267 245.52 267 389 267 C389.33 248.85 389.66 230.7 390 212 C393 209 393 209 397 208 C397 203.05 397 198.1 397 193 C395.02 192.01 393.04 191.02 391 190 C368.33921645 144.6784329 389.33779951 88.66992646 389 38 C249.74 38 110.48 38 -33 38 Z " fill="#355D7C" transform="translate(78,24)"/>
<path d="M0 0 C159.06 0 318.12 0 482 0 C482 47.45145939 482 47.45145939 473.7734375 56.4296875 C467.50849028 61.97706367 460.86008174 64.12111006 452.59860802 64.13028526 C451.52110043 64.13390961 450.44359284 64.13753396 449.33343351 64.14126813 C447.56656767 64.13966576 447.56656767 64.13966576 445.76400757 64.13803101 C444.50820157 64.14085229 443.25239557 64.14367357 441.95853484 64.14658034 C438.47533623 64.15432363 434.99215734 64.15595222 431.50895119 64.15663147 C427.75161262 64.15847286 423.99428555 64.16608048 420.23695374 64.17311096 C413.72726968 64.18463094 407.21758821 64.19287801 400.70789719 64.19923019 C390.42354372 64.2095562 380.13922255 64.23011834 369.85488892 64.25234985 C366.33686648 64.25982918 362.81884392 64.26724292 359.3008213 64.27463722 C358.42168884 64.27648779 357.54255638 64.27833835 356.63678353 64.280245 C346.63220778 64.30116718 336.62762848 64.31999941 326.62304688 64.33789062 C325.70854258 64.33952881 324.79403828 64.34116699 323.85182174 64.34285481 C309.01672668 64.36916607 294.18162913 64.38779603 279.34652059 64.40448253 C264.12166134 64.42188439 248.89685113 64.45070649 233.67203104 64.4893719 C224.27689774 64.51280382 214.88184436 64.52676932 205.4866816 64.52869953 C199.05402002 64.53080396 192.62143809 64.54369142 186.18881224 64.56517886 C182.47402052 64.57724209 178.75938697 64.58433657 175.04457664 64.57846642 C171.02356972 64.57222587 167.00299147 64.588931 162.98202515 64.60800171 C161.20846714 64.59970717 161.20846714 64.59970717 159.39907968 64.59124506 C157.79064154 64.60450482 157.79064154 64.60450482 156.1497097 64.61803246 C155.22096609 64.61938898 154.29222249 64.62074551 153.33533514 64.62214315 C150.53246732 65.07564671 149.67966955 65.74766525 148 68 C147.67 68.99 147.34 69.98 147 71 C144.56065775 71.13501894 142.12875896 71.23403897 139.6875 71.3125 C138.99720703 71.35439453 138.30691406 71.39628906 137.59570312 71.43945312 C135.57421875 71.48828125 135.57421875 71.48828125 132 71 C130.08203125 68.54296875 130.08203125 68.54296875 129 66 C127.46957021 64.46957021 126.09494913 64.87222678 123.96083069 64.86869812 C123.09042145 64.86468994 122.22001221 64.86068176 121.32322693 64.85655212 C120.36070511 64.85708084 119.39818329 64.85760956 118.40649414 64.8581543 C117.39828613 64.85467987 116.39007813 64.85120544 115.35131836 64.84762573 C113.15233479 64.84025167 110.95334369 64.83491513 108.75435066 64.83133507 C105.26915037 64.82418592 101.78409222 64.80852835 98.29893494 64.78999329 C88.3860781 64.73746948 78.47329553 64.68959416 68.56030273 64.67407227 C62.50301957 64.66396437 56.44608844 64.63456036 50.38894463 64.59275246 C48.08342597 64.5804695 45.7778575 64.57531623 43.47230721 64.57755089 C40.23384525 64.57991593 36.99638303 64.55764224 33.75805664 64.5300293 C32.8137529 64.53663071 31.86944916 64.54323212 30.89653015 64.55003357 C21.44526188 64.41848999 13.60062184 61.41401724 6.69140625 54.9375 C-6.15214295 40.22525889 0 16.95124687 0 0 Z " fill="#CFE1E6" transform="translate(15,336)"/>
<path d="M0 0 C0.73672582 -0.00465992 1.47345164 -0.00931984 2.23250249 -0.01412097 C4.70878126 -0.02610115 7.18451442 -0.01666409 9.66079807 -0.00736332 C11.45100396 -0.01153492 13.2412072 -0.01701147 15.03140551 -0.02368313 C19.95686057 -0.03817928 24.8821489 -0.03388002 29.80761325 -0.02651632 C35.11718098 -0.02179726 40.42671198 -0.03428328 45.73626804 -0.04453373 C56.1403836 -0.06175175 66.54443883 -0.06255553 76.94856494 -0.05732083 C85.40282551 -0.05328355 93.85706822 -0.05471741 102.31132793 -0.06006908 C103.51342493 -0.06081751 104.71552192 -0.06156593 105.95404609 -0.06233703 C108.39590204 -0.06386847 110.83775798 -0.06540681 113.27961392 -0.066952 C136.19167693 -0.08068785 159.10370582 -0.07523167 182.01576806 -0.06376678 C202.98884255 -0.05383278 223.96182884 -0.06677608 244.93488973 -0.09070098 C266.45730237 -0.11506805 287.97967389 -0.12470577 309.50210005 -0.11804825 C321.59042523 -0.11455077 333.67868256 -0.11682295 345.76699734 -0.13429928 C356.05731388 -0.14899134 366.34751479 -0.14969597 376.637829 -0.13222837 C381.89019563 -0.12369136 387.14235542 -0.12163454 392.39471149 -0.13687992 C397.20051027 -0.1506567 402.00592362 -0.14605463 406.8116997 -0.12664068 C408.55255953 -0.12285874 410.29344972 -0.12586533 412.03428268 -0.13625234 C414.39709698 -0.14935076 416.75856693 -0.1379042 419.12132263 -0.12025452 C420.43472293 -0.12014718 421.74812323 -0.12003984 423.10132354 -0.11992925 C428.16545445 0.59929998 431.3273264 2.73901376 434.47477245 6.72427177 C435.87172887 9.95403203 436.00104431 12.35917844 436.00453281 15.87703609 C436.01299229 17.19073681 436.02145176 18.50443752 436.03016758 19.85794735 C436.02433515 21.30689269 436.01819068 22.7558368 436.01176548 24.20477962 C436.01583208 25.73595714 436.02117446 27.26713172 436.02769566 28.79830074 C436.04136345 32.95110665 436.03607318 37.10368879 436.0265584 41.25649858 C436.01896039 45.60282603 436.02600768 49.9491344 436.0307169 54.29546261 C436.03617345 61.59306941 436.02898485 68.8905851 436.01469517 76.18817806 C435.99836271 84.62647009 436.00366184 93.06454474 436.02017438 101.50283152 C436.03378481 108.74796443 436.03571128 115.99303187 436.02785838 123.23817343 C436.0231802 127.56537149 436.02256109 131.89246734 436.03246784 136.21965885 C436.04112901 140.28678545 436.03513131 144.35363146 436.01778507 148.42072773 C436.01381593 149.91388769 436.01496161 151.40707123 436.02157307 152.90022182 C436.02976071 154.93699969 436.01767653 156.97382911 436.00453281 159.01058102 C436.00340174 160.1507974 436.00227066 161.29101377 436.00110531 162.46578217 C435.582823 165.69498117 434.89075107 167.07917646 432.62358189 169.38031673 C430.46733189 169.91156673 430.46733189 169.91156673 428.12358189 169.88031673 C427.35014439 169.89062923 426.57670689 169.90094173 425.77983189 169.91156673 C423.62358189 169.38031673 423.62358189 169.38031673 420.62358189 165.38031673 C420.62358189 115.88031673 420.62358189 66.38031673 420.62358189 15.38031673 C281.36358189 15.38031673 142.10358189 15.38031673 -1.37641811 15.38031673 C-1.37641811 90.95031673 -1.37641811 166.52031673 -1.37641811 244.38031673 C137.88358189 244.38031673 277.14358189 244.38031673 420.62358189 244.38031673 C420.62358189 226.23031673 420.62358189 208.08031673 420.62358189 189.38031673 C424.62358189 185.38031673 424.62358189 185.38031673 427.56108189 184.88031673 C431.38677655 185.50491995 432.88900714 186.65928899 435.62358189 189.38031673 C436.24504185 192.09879208 436.24504185 192.09879208 436.23881626 195.24701595 C436.25277439 197.01938122 436.25277439 197.01938122 436.2670145 198.82755184 C436.24242161 200.73699078 436.24242161 200.73699078 436.21733189 202.68500423 C436.21737217 203.9968771 436.21741245 205.30874996 436.21745396 206.66037655 C436.21580165 209.43633136 436.19712759 212.2114777 436.16557407 214.98725033 C436.12597286 218.5336917 436.1215201 222.07907099 436.1290369 225.62569141 C436.13285812 229.02059002 436.11200537 232.41515798 436.09233189 235.81000423 C436.09213047 237.07891506 436.09192905 238.34782589 436.09172153 239.65518856 C436.06785374 241.43701031 436.06785374 241.43701031 436.04350376 243.25482845 C436.03508457 244.29533352 436.02666538 245.33583858 436.01799107 246.40787411 C435.43558395 250.79715263 433.91879748 254.2065276 430.62358189 257.19281673 C426.56778547 259.60094586 423.13627196 259.50822456 418.5088768 259.51453781 C417.77614704 259.51689004 417.04341728 259.51924227 416.28848359 259.52166578 C413.81392056 259.52836431 411.33940994 259.5278973 408.8648386 259.52748775 C407.08048622 259.53078584 405.29613458 259.53451128 403.5117839 259.53862923 C398.59326304 259.54866347 393.67475439 259.5523683 388.75622475 259.55501854 C383.45753943 259.55891731 378.15886381 259.56849585 372.86018467 259.57723141 C360.05744166 259.59700655 347.25469784 259.60706275 334.45194337 259.6159592 C328.42721916 259.62033984 322.40249584 259.62570717 316.37777233 259.63094807 C296.35834752 259.64796037 276.33892327 259.66245592 256.31949234 259.66969681 C251.12275981 259.67160679 245.92602729 259.67352711 240.72929478 259.67548275 C239.43762895 259.67596649 238.14596312 259.67645023 236.8151559 259.67694863 C215.87752677 259.68525406 194.93995468 259.71059963 174.00235047 259.74306343 C152.52068963 259.77610011 131.03905782 259.79414244 109.55737144 259.79734105 C97.49024533 259.79950915 85.42320243 259.8083017 73.35610104 259.83380222 C63.08221662 259.85546282 52.80843562 259.86358251 42.53453096 259.85383544 C37.2902709 259.84927744 32.04622441 259.85126391 26.80199337 259.87059689 C22.00353004 259.88813423 17.20543759 259.88730794 12.40697084 259.87169959 C10.66873737 259.86930914 8.93047884 259.87372098 7.19228383 259.88552824 C4.83300542 259.90056498 2.47505519 259.89103299 0.11581039 259.87530136 C-1.85135963 259.87676657 -1.85135963 259.87676657 -3.85827047 259.87826139 C-8.84611881 259.17230113 -11.96513017 257.0145283 -15.22718811 253.2372036 C-16.91478387 249.0419858 -16.79341232 245.1528734 -16.76409817 240.67012691 C-16.76948371 239.68595207 -16.77486924 238.70177722 -16.78041798 237.68777889 C-16.79473688 234.38667835 -16.787584 231.08597659 -16.78047085 227.78485775 C-16.78617234 225.41949802 -16.79313573 223.05414104 -16.80126858 220.68878841 C-16.81923925 214.26116112 -16.81802424 207.83367006 -16.81232619 201.40602517 C-16.80926647 197.39190886 -16.81222045 193.37781207 -16.81680393 189.36369801 C-16.81755235 188.69724573 -16.81830078 188.03079346 -16.81907188 187.34414567 C-16.82060336 185.99023072 -16.82214171 184.63631577 -16.82368685 183.28240084 C-16.83741352 170.58680727 -16.83197303 157.89127533 -16.82050163 145.19568317 C-16.81056902 133.58287836 -16.82351004 121.97023287 -16.84743582 110.35745264 C-16.87182239 98.4310979 -16.8814358 86.50481739 -16.8747831 74.57843822 C-16.87128988 67.88360243 -16.87386396 61.1889072 -16.89103413 54.49408817 C-16.90647299 48.19936773 -16.90258139 41.90495207 -16.88372898 35.6102438 C-16.88003469 33.29874067 -16.88317589 30.98721512 -16.89361477 28.67573261 C-16.90676835 25.52263131 -16.89532636 22.37054736 -16.87762356 19.2174902 C-16.88722856 18.3006593 -16.89683357 17.38382841 -16.90672964 16.43921477 C-16.84322366 10.94966863 -16.16236676 7.65005631 -12.37641811 3.38031673 C-8.23054991 0.26927736 -5.12643295 0.00401737 0 0 Z " fill="#000101" transform="translate(46.376418113708496,46.619683265686035)"/>
<path d="M0 0 C8.29378871 4.85319508 13.62130985 11.72190938 17.921875 20.1796875 C18.87453715 22.16296666 18.87453715 22.16296666 21 23 C22.78511501 23.09384366 24.57071578 23.18288081 26.35742188 23.23876953 C36.98839417 23.6046029 45.2607495 25.50326471 53.2421875 33 C60.83465578 41.63854169 61.83781446 50.98203887 61.21777344 62.05566406 C60.38013456 69.53431434 55.50149017 75.32672796 50.1875 80.30859375 C44.54147915 84.67417773 37.80163294 87.1004513 30.67599487 87.15390015 C29.38943748 87.16680084 29.38943748 87.16680084 28.07688904 87.17996216 C27.14385452 87.18422211 26.21082001 87.18848206 25.24951172 87.19287109 C24.26037277 87.20104858 23.27123383 87.20922607 22.25212097 87.21765137 C18.97798258 87.24246637 15.70388749 87.25901306 12.4296875 87.2734375 C11.30948338 87.27876118 10.18927925 87.28408485 9.03512955 87.28956985 C3.10383031 87.31628674 -2.827448 87.33566485 -8.75878906 87.35009766 C-13.65904446 87.36342704 -18.55888248 87.39126408 -23.45898438 87.43212891 C-29.38346153 87.48153307 -35.30756061 87.50622857 -41.23223495 87.51332474 C-43.48479209 87.52002347 -45.73734125 87.5352094 -47.98978043 87.55921555 C-51.1513444 87.59098393 -54.31146156 87.5908857 -57.47314453 87.58349609 C-58.39403366 87.59990143 -59.31492279 87.61630676 -60.26371765 87.63320923 C-67.93825322 87.5602173 -74.40055331 85.25116079 -80.15199471 80.05623436 C-86.06037922 73.872438 -88.11278729 68.09403695 -88.5 59.625 C-88.30400844 52.2710557 -86.26552635 46.75170893 -81.42578125 41.19140625 C-75.34242219 35.50509627 -68.2238877 32.62330841 -59.9453125 32.37109375 C-57.38043262 31.88180943 -56.5617308 31.07309399 -55 29 C-54.21142053 26.84287133 -54.21142053 26.84287133 -53.6875 24.4375 C-50.56264403 13.42839206 -44.14686993 5.11395454 -34.2109375 -0.60546875 C-22.72468383 -6.01522147 -11.41975902 -5.29208345 0 0 Z " fill="#B0E3F8" transform="translate(168,92)"/>
<path d="M0 0 C0.7784729 -0.00096176 1.5569458 -0.00192352 2.35900879 -0.00291443 C3.24672974 -0.01544754 4.13445068 -0.02798065 5.04907227 -0.04089355 C6.00019897 -0.02763535 6.95132568 -0.01437714 7.93127441 -0.00071716 C8.91494995 -0.00312912 9.89862549 -0.00554108 10.91210938 -0.00802612 C12.98999059 -0.00704747 15.06789781 0.00635048 17.14562988 0.03126526 C20.32638102 0.06556891 23.50435363 0.05192626 26.68518066 0.03248596 C28.70472374 0.03938451 30.72425965 0.04905697 32.74377441 0.06178284 C33.69490112 0.05682297 34.64602783 0.0518631 35.62597656 0.04675293 C36.95755798 0.07050743 36.95755798 0.07050743 38.31604004 0.09474182 C39.09451294 0.1009404 39.87298584 0.10713898 40.67504883 0.11352539 C43.77366801 0.85098889 44.86701616 2.14303445 46.83752441 4.62818909 C47.34368229 7.71730804 47.34368229 7.71730804 47.35218811 11.42225647 C47.3626064 12.44607949 47.3626064 12.44607949 47.37323517 13.4905858 C47.39152748 15.77702062 47.38123559 18.06242043 47.37097168 20.34889221 C47.37802903 21.98829933 47.38677328 23.62769993 47.39707947 25.26708984 C47.41960276 29.71956545 47.41662713 34.17168609 47.407758 38.62419701 C47.40265247 42.33961104 47.40993703 46.0549581 47.41723007 49.77036524 C47.43423806 58.53374222 47.43065377 67.2969451 47.41394043 76.06031799 C47.39701211 85.10592507 47.41286126 94.15104984 47.44516331 103.19660425 C47.47183728 110.95977685 47.47914134 118.7227991 47.47064823 126.48601294 C47.46571331 131.12405444 47.46796517 135.76180559 47.48843575 140.39981079 C47.50675895 144.76008181 47.5008759 149.11965744 47.47623634 153.47989082 C47.47121796 155.08109246 47.47474486 156.68234678 47.4873848 158.28350639 C47.50326596 160.4678494 47.48841635 162.64988841 47.4657135 164.8341217 C47.46512719 166.05675468 47.46454088 167.27938766 47.46393681 168.53907013 C46.83752441 171.62818909 46.83752441 171.62818909 44.43576717 174.02065182 C41.77240085 175.66848115 40.48090763 176.13576564 37.40197754 176.16163635 C36.13541321 176.18539085 36.13541321 176.18539085 34.84326172 176.20962524 C33.94418091 176.20466537 33.0451001 176.19970551 32.11877441 176.19459534 C31.18327759 176.20079391 30.24778076 176.20699249 29.28393555 176.21337891 C27.31043537 176.22046769 25.33687527 176.21731953 23.36340332 176.2046051 C20.34714614 176.19073334 17.33398877 176.22483048 14.31799316 176.26295471 C12.39741949 176.26390591 10.47684194 176.26204706 8.55627441 176.25709534 C7.6571936 176.27035355 6.75811279 176.28361176 5.83178711 176.29727173 C4.98741089 176.28473862 4.14303467 176.27220551 3.27307129 176.2592926 C2.53536499 176.25833084 1.79765869 176.25736908 1.03759766 176.25637817 C-2.39533851 175.27616852 -3.905715 173.34157176 -6.16247559 170.62818909 C-6.78888798 167.45005035 -6.78888798 167.45005035 -6.79066467 163.79652405 C-6.80130625 162.7847284 -6.80130625 162.7847284 -6.81216282 161.75249243 C-6.82972404 159.49888463 -6.81165032 157.24700602 -6.7935791 154.99342346 C-6.79871871 153.37519547 -6.8060003 151.75697308 -6.81526184 150.13876343 C-6.83377908 145.74815715 -6.82083547 141.358158 -6.80117154 136.96757698 C-6.78478629 132.37214068 -6.79359776 127.77674288 -6.7986908 123.18128967 C-6.8032119 115.46410931 -6.78734094 107.74717132 -6.75939941 100.03004456 C-6.72734739 91.10887962 -6.72736317 82.18815182 -6.74461418 73.26695585 C-6.76047979 64.6838861 -6.7537455 56.10097656 -6.73667717 47.51791382 C-6.72980584 43.86567926 -6.73083995 40.21357309 -6.73822212 36.56134033 C-6.74588518 32.26019912 -6.73375845 27.95955518 -6.70637321 23.65849876 C-6.69948847 22.08030358 -6.69939241 20.50206197 -6.70658875 18.92386818 C-6.7152836 16.76864255 -6.69932996 14.6149515 -6.67713928 12.45985413 C-6.67433236 11.25419044 -6.67152544 10.04852676 -6.66863346 8.80632782 C-5.99653431 4.5862525 -4.29747303 1.2483959 0 0 Z " fill="#020302" transform="translate(400.1624755859375,104.37181091308594)"/>
<path d="M0 0 C5.50689064 4.21492461 10.90052518 8.7535313 14.34375 14.83203125 C17.24198228 18.56197455 19.07593143 18.67805422 23.6875 19.3125 C37.20142585 21.51206195 47.03900448 26.80248784 55.92578125 37.3671875 C62.15341276 46.19585843 64.75411789 54.21614764 64.8125 64.8125 C64.8434375 66.18148437 64.8434375 66.18148437 64.875 67.578125 C64.94584718 80.01180549 59.7121695 90.86474127 51.3671875 100.03125 C36.94211401 113.26984559 20.51031968 113.2770879 2.11328125 113.1484375 C-0.15346674 113.14604836 -2.42021675 113.14514875 -4.68696594 113.1456604 C-9.41651979 113.14254728 -14.14576732 113.12609395 -18.87524414 113.09912109 C-24.91729514 113.06508539 -30.9590116 113.0574952 -37.00114727 113.05901146 C-41.6741908 113.05846605 -46.34716221 113.04747243 -51.02018166 113.03300858 C-53.2475715 113.0266761 -55.47496944 113.02271006 -57.70236778 113.02122116 C-60.81954068 113.0168535 -63.93636887 112.99928021 -67.0534668 112.97802734 C-67.96021652 112.97893372 -68.86696625 112.97984009 -69.80119324 112.98077393 C-82.55829702 112.85447925 -93.34042474 109.79513102 -102.8125 100.875 C-106.51722238 96.89753732 -109.21971243 92.64029768 -111.4375 87.6875 C-111.82699829 86.81992065 -111.82699829 86.81992065 -112.22436523 85.93481445 C-114.34263685 80.84127976 -114.95011555 76.36789817 -114.875 70.875 C-114.86670166 70.08746338 -114.85840332 69.29992676 -114.84985352 68.48852539 C-114.50397787 56.49365657 -109.82581527 48.15262868 -101.48828125 39.71484375 C-94.46404125 33.21500674 -88.02048059 30.13115651 -78.4375 29.6875 C-78.33308594 28.81609375 -78.22867188 27.9446875 -78.12109375 27.046875 C-75.82999751 15.78777348 -66.93071187 6.57849076 -58.03125 -0.125 C-40.20268129 -11.70199267 -17.70752421 -11.76902524 0 0 Z M-58.4375 20.6875 C-61.76861804 25.5459564 -64.30445389 30.42991897 -65.625 36.1875 C-66.65467361 40.62301708 -66.65467361 40.62301708 -69.4375 42.6875 C-72.0390625 43.2421875 -72.0390625 43.2421875 -75.0625 43.5625 C-83.56581012 44.82567288 -89.92576601 48.00974581 -95.21875 54.890625 C-100.28613143 62.36176428 -100.64146105 70.20129545 -99.00390625 79.0234375 C-96.69786779 86.27098695 -91.50768661 91.88539661 -84.84239197 95.38633728 C-79.4655729 97.95943814 -74.91673054 98.39435487 -69.02172852 98.31860352 C-67.5391153 98.32933647 -67.5391153 98.32933647 -66.02655029 98.34028625 C-62.78935196 98.35706655 -59.55355962 98.33783104 -56.31640625 98.31640625 C-54.04776394 98.31723599 -51.7791217 98.31969934 -49.51048279 98.32371521 C-44.76713865 98.32656603 -40.02426855 98.31194261 -35.28100586 98.28442383 C-29.22420822 98.2503626 -23.16825873 98.25636006 -17.11142063 98.2750864 C-12.42971323 98.28569467 -7.7482005 98.27668345 -3.06651115 98.26170158 C-0.83436602 98.25654609 1.39779968 98.25696931 3.62994194 98.26324654 C23.86145475 98.53459494 23.86145475 98.53459494 40.84375 88.55078125 C46.97613874 81.90271437 49.94959562 75.99697913 49.875 66.875 C49.86654053 65.80378906 49.86654053 65.80378906 49.85791016 64.7109375 C49.65160247 55.77229937 46.74729658 49.1668107 40.5625 42.6875 C32.61869456 36.25273287 25.41337238 34.37103851 15.30859375 34.296875 C11.96872401 34.18323104 9.94587799 33.97487241 7.23828125 31.9453125 C5.55626469 29.67909904 4.19655452 27.42980101 2.875 24.9375 C-2.91081306 15.10596804 -10.63925816 10.32159685 -21.35546875 7.11328125 C-36.08206241 4.1016514 -48.77036853 9.5582579 -58.4375 20.6875 Z " fill="#030303" transform="translate(179.4375,81.3125)"/>
<path d="M0 0 C0.8644725 -0.01583633 1.72894501 -0.03167267 2.61961365 -0.04798889 C4.00878746 -0.04054909 4.00878746 -0.04054909 5.42602539 -0.03295898 C6.86468712 -0.04225685 6.86468712 -0.04225685 8.33241272 -0.05174255 C10.35896795 -0.05884019 12.3855815 -0.0556677 14.41210938 -0.04296875 C17.50963964 -0.02911553 20.6041415 -0.06315943 23.70141602 -0.10131836 C25.67211988 -0.1022697 27.64282752 -0.10040994 29.61352539 -0.09545898 C30.53761703 -0.10871719 31.46170868 -0.1219754 32.4138031 -0.13563538 C33.28142776 -0.12310226 34.14905243 -0.11056915 35.04296875 -0.09765625 C35.80145615 -0.09669449 36.55994354 -0.09573273 37.34141541 -0.09474182 C41.02621752 0.9364357 42.35828389 2.42543407 44.58618164 5.53344727 C45.31460733 9.18459377 45.2487576 12.77387048 45.20141602 16.48657227 C45.20696503 17.59117798 45.21251404 18.69578369 45.2182312 19.8338623 C45.23003926 23.48416559 45.20573853 27.13323084 45.17993164 30.78344727 C45.17822081 33.32023054 45.17828594 35.85701559 45.18005371 38.39379883 C45.17839979 43.71006532 45.16027016 49.02589994 45.12817383 54.34204102 C45.0912826 60.48208354 45.08249865 66.62165997 45.08947134 72.76179886 C45.09578381 78.67625452 45.08479463 84.59057213 45.06550598 90.50500488 C45.05847193 93.01842469 45.05535194 95.53185858 45.05619812 98.04528809 C45.05440155 101.55722528 45.03303035 105.0684996 45.00610352 108.58032227 C45.00903412 109.62047485 45.01196472 110.66062744 45.01498413 111.7322998 C44.90790688 120.77847474 44.90790688 120.77847474 41.58618164 124.53344727 C38.85424778 125.44409189 37.17955192 125.67322468 34.36181641 125.71044922 C33.09018394 125.72970207 33.09018394 125.72970207 31.79286194 125.74934387 C30.8803215 125.7567308 29.96778107 125.76411774 29.02758789 125.77172852 C28.0868895 125.77980026 27.1461911 125.78787201 26.17698669 125.79618835 C24.18734576 125.81001569 22.19768123 125.82074388 20.20800781 125.82861328 C17.16368967 125.84586223 14.12044758 125.88976431 11.07641602 125.93383789 C9.14348129 125.94396195 7.21053734 125.95247895 5.27758789 125.95922852 C3.91181358 125.98549065 3.91181358 125.98549065 2.51844788 126.01228333 C1.24208717 126.00789497 1.24208717 126.00789497 -0.06005859 126.00341797 C-0.80601791 126.00928421 -1.55197723 126.01515045 -2.32054138 126.02119446 C-5.60047769 125.2569479 -6.53766944 124.37532685 -8.41381836 121.53344727 C-9.01911475 117.82734744 -8.95966924 114.15057365 -8.93139648 110.40258789 C-8.93840576 109.2672612 -8.94541504 108.13193451 -8.95263672 106.96220398 C-8.97026066 103.2044539 -8.95857754 99.44745518 -8.94506836 95.68969727 C-8.94776199 93.08182633 -8.95164332 90.47395636 -8.95666504 87.86608887 C-8.96393996 82.39851725 -8.95435807 76.93116183 -8.93530273 71.46362305 C-8.91353397 65.14459676 -8.92058548 58.82608671 -8.94260836 52.50707293 C-8.96295451 46.425478 -8.9607922 40.34411175 -8.94908142 34.26249695 C-8.94640953 31.67567371 -8.94970003 29.08883733 -8.95899963 26.50202942 C-8.96913713 22.88909808 -8.95370153 19.27716357 -8.93139648 15.66430664 C-8.93949341 14.59093552 -8.94759033 13.51756439 -8.95593262 12.41166687 C-8.87363039 5.23039325 -8.87363039 5.23039325 -6.65733337 1.87110901 C-4.19452179 0.40269502 -2.84839402 0.02330234 0 0 Z " fill="#020202" transform="translate(329.413818359375,154.466552734375)"/>
<path d="M0 0 C26.4 0 52.8 0 80 0 C80.99 9.9 80.99 9.9 82 20 C85.56114514 34.66353879 90.67025214 48.72701217 100.65234375 60.30078125 C102 62 102 62 103 65 C61.42 65 19.84 65 -23 65 C-21.0164747 61.6941245 -19.00271245 58.5255996 -16.84057617 55.34643555 C-5.3875416 38.24811949 -1.45892274 20.42491839 0 0 Z " fill="#355C7B" transform="translate(216,415)"/>
<path d="M0 0 C47.7469615 -0.09154651 95.49391371 -0.16203416 143.24094566 -0.20426132 C148.87734608 -0.20926417 154.51374633 -0.21444146 160.15014648 -0.21972656 C161.27225684 -0.2207758 162.39436721 -0.22182505 163.55048091 -0.22290608 C181.72183356 -0.24031343 199.89313561 -0.27185296 218.06445824 -0.30861118 C236.70857314 -0.34601139 255.35266153 -0.36823391 273.9968124 -0.37635398 C285.5021498 -0.38184365 297.00734419 -0.39918516 308.51263756 -0.43166587 C316.40121732 -0.45280236 324.28972309 -0.45920199 332.1783291 -0.45400551 C336.73031613 -0.4514424 341.28205318 -0.45538392 345.83399582 -0.4768219 C350.00360233 -0.49631569 354.17279122 -0.49725176 358.34241713 -0.48359558 C359.84863224 -0.48190827 361.35487362 -0.48695863 362.86103719 -0.49953273 C374.08536502 -0.5877688 382.74858424 0.86409702 391.06875497 8.87647212 C397.3849526 15.82153687 398.73200596 23.28010691 398.60127258 32.37686157 C398.60555267 33.47715698 398.60983276 34.57745239 398.61424255 35.71109009 C398.62247791 39.38675221 398.59497019 43.06125947 398.56762695 46.73681641 C398.56609439 49.42135786 398.56654253 52.10583178 398.56945324 54.79036522 C398.57210312 61.23990741 398.54909948 67.6890993 398.5169466 74.13855167 C398.48084622 81.60436461 398.47696743 89.06996929 398.47302246 96.53588867 C398.44680591 116.23231435 398.37699993 135.92866249 398.3125 155.625 C398.209375 199.63875 398.10625 243.6525 398 289 C238.94 289 79.88 289 -84 289 C-84 288.67 -84 288.34 -84 288 C69.12 288 222.24 288 380 288 C380 281.73 380 275.46 380 269 C380.66 267.35 381.32 265.7 382 264 C382.32624586 261.10129639 382.32624586 261.10129639 382.32226562 257.98803711 C382.34148071 256.80008041 382.3606958 255.61212372 382.38049316 254.38816833 C382.38899292 253.11409622 382.39749268 251.84002411 382.40625 250.52734375 C382.41765015 249.21214249 382.42905029 247.89694122 382.4407959 246.54188538 C382.46174776 243.76382917 382.47347942 240.98588765 382.48046875 238.20776367 C382.49146842 234.65069331 382.53960832 231.09514268 382.59641266 227.53855038 C382.64262458 224.13900966 382.64655854 220.73968236 382.65625 217.33984375 C382.69329041 215.42569923 382.69329041 215.42569923 382.7310791 213.47288513 C382.71450933 210.20209282 382.66503987 207.20278075 382 204 C379.18006521 201.31484978 379.18006521 201.31484978 376 200 C375.53788135 197.10405649 375.415253 195.09502976 375.625 192.25 C375.65207031 191.55261719 375.67914063 190.85523438 375.70703125 190.13671875 C375.77745217 188.42314295 375.88507087 186.71116698 376 185 C375.01 184.67 374.02 184.34 373 184 C374.11375 183.896875 375.2275 183.79375 376.375 183.6875 C378.169375 183.3471875 378.169375 183.3471875 380 183 C382.36185188 179.45722218 382.25504682 177.97085482 382.26742554 173.77070618 C382.27595551 172.46553543 382.28448547 171.16036469 382.29327393 169.81564331 C382.29257486 168.36578357 382.29165178 166.91592393 382.29052734 165.46606445 C382.29651072 163.94167246 382.30331582 162.41728351 382.31088257 160.89289856 C382.32857407 156.74802699 382.3332394 152.60323797 382.33451414 148.4583323 C382.33593507 145.86770725 382.34020366 143.27710322 382.34550858 140.68648338 C382.36402265 131.6452234 382.37217789 122.60402245 382.37060547 113.56274414 C382.36940524 105.14158151 382.39048062 96.72067568 382.4220928 88.29957801 C382.44827589 81.06631909 382.45897184 73.83314389 382.45769465 66.59983796 C382.4571854 62.28136978 382.46284713 57.96312952 382.48405075 53.64470863 C382.50346626 49.57919845 382.50353522 45.51413268 382.48901749 41.44860649 C382.48693204 39.96034214 382.49161459 38.47204975 382.5037384 36.98383331 C382.56549047 28.8752151 382.41203775 22.92028448 378 16 C376.0625 11.875 376.0625 11.875 375.22265625 10.0546875 C374.81917969 9.37664063 374.41570312 8.69859375 374 8 C373.45111272 6.98328657 372.90222544 5.96657314 372.33670521 4.91905022 C370.32664435 2.57055776 369.19213245 2.0372555 366.11692464 1.44095635 C362.20178757 1.22266963 358.30874804 1.2016418 354.39006042 1.24050903 C352.86368037 1.23376205 351.33731006 1.22438408 349.81096059 1.21259964 C345.61480648 1.18782835 341.41946405 1.20043526 337.22330868 1.21906328 C332.69909677 1.23262836 328.17503095 1.21164791 323.65084839 1.19483948 C315.81184572 1.17045486 307.97308161 1.16801149 300.13405418 1.18042374 C288.80015597 1.19833809 277.46649151 1.18323497 266.13261167 1.16004442 C247.7447209 1.12331843 229.35691653 1.11333615 210.96899414 1.12011719 C193.105683 1.12664761 175.24244903 1.12061695 157.37915039 1.09765625 C156.27826264 1.0962456 155.17737489 1.09483494 154.0431269 1.09338154 C148.5203575 1.08622716 142.99758845 1.07882545 137.47481954 1.07130075 C91.64987356 1.00918491 45.82498331 0.99044826 0 1 C0 0.67 0 0.34 0 0 Z " fill="#2A4B64" transform="translate(99,32)"/>
<path d="M0 0 C1.29670876 -0.01891296 1.29670876 -0.01891296 2.61961365 -0.03820801 C3.54572952 -0.03011108 4.4718454 -0.02201416 5.42602539 -0.01367188 C6.38513321 -0.01749878 7.34424103 -0.02132568 8.33241272 -0.02526855 C10.35898896 -0.02798814 12.38560027 -0.0206237 14.41210938 -0.00390625 C17.50934443 0.01747913 20.60425365 -0.00369439 23.70141602 -0.02929688 C25.67212425 -0.02665315 27.64283104 -0.02152724 29.61352539 -0.01367188 C30.53761703 -0.0217688 31.46170868 -0.02986572 32.4138031 -0.03820801 C33.7152401 -0.01929504 33.7152401 -0.01929504 35.04296875 0 C35.80145615 0.00318237 36.55994354 0.00636475 37.34141541 0.00964355 C40.71339856 0.77263918 42.26073483 1.95716653 44.58618164 4.51757812 C45.09029831 7.46506748 45.27130677 9.83933078 45.2331543 12.78686523 C45.24191589 13.61822495 45.25067749 14.44958466 45.25970459 15.30613708 C45.28170198 18.05293046 45.26714394 20.79811227 45.25024414 23.54492188 C45.25361251 25.45537118 45.25846531 27.3658184 45.26473999 29.27626038 C45.27211203 33.28032839 45.26139636 37.28383864 45.23803711 41.2878418 C45.20956839 46.41739597 45.22593907 51.54564107 45.25589943 56.67514706 C45.27397993 60.62062923 45.26821059 64.56580184 45.25526047 68.51129341 C45.25192753 70.40231036 45.25600958 72.29335552 45.26765823 74.18433952 C45.28037735 76.82994712 45.26097573 79.47344574 45.2331543 82.11889648 C45.24327545 82.89879944 45.25339661 83.67870239 45.26382446 84.48223877 C45.18718682 88.42149575 44.72849216 90.32991441 42.32296753 93.50205994 C39.56565461 95.53269535 38.49045543 96.14654132 35.15063477 96.16455078 C34.30625854 96.18031158 33.46188232 96.19607239 32.59191895 96.21231079 C31.69283813 96.20218964 30.79375732 96.19206848 29.86743164 96.18164062 C28.93193481 96.18642426 27.99643799 96.19120789 27.03259277 96.19613647 C25.05906488 96.19953173 23.08548046 96.19035551 21.11206055 96.16943359 C18.09564508 96.14266212 15.08295047 96.16919349 12.06665039 96.20117188 C10.14606928 96.19786771 8.22549048 96.19146134 6.30493164 96.18164062 C4.95631042 96.19682236 4.95631042 96.19682236 3.58044434 96.21231079 C2.73606812 96.19654999 1.89169189 96.18078918 1.02172852 96.16455078 C0.28402222 96.16057281 -0.45368408 96.15659485 -1.21374512 96.15249634 C-4.74982933 95.13201928 -6.20977493 93.42530632 -8.41381836 90.51757812 C-8.90346741 87.52503258 -9.08969442 85.10535259 -9.04492188 82.11889648 C-9.05207718 81.28578445 -9.05923248 80.45267242 -9.06660461 79.59431458 C-9.08347549 76.8481212 -9.06410092 74.10356387 -9.04272461 71.35742188 C-9.04355338 69.44600795 -9.04601307 67.53459409 -9.05003357 65.6231842 C-9.05289036 61.62088523 -9.03820059 57.61914625 -9.01074219 53.61694336 C-8.97663654 48.48633354 -8.9826864 43.35672351 -9.00140476 38.22606564 C-9.01197108 34.2806413 -9.00304067 30.33544976 -8.98801994 26.39004707 C-8.98283652 24.49821222 -8.98332187 22.60635307 -8.9895649 20.71452141 C-8.99501361 18.07143698 -8.97465482 15.42978629 -8.94726562 12.78686523 C-8.9537915 12.00493805 -8.96031738 11.22301086 -8.96704102 10.41738892 C-8.90615676 6.96327381 -8.67444124 4.88601133 -6.65634155 2.03309631 C-4.16871722 0.35193648 -2.97003852 0.01247443 0 0 Z " fill="#020101" transform="translate(255.413818359375,184.482421875)"/>
<path d="M0 0 C139.26 0 278.52 0 422 0 C422.33 49.5 422.66 99 423 150 C426.47825081 154.0745356 426.47825081 154.0745356 430 155 C430 159.95 430 164.9 430 170 C428.35 170.66 426.7 171.32 425 172 C411.54637595 185.45362405 422.34587552 209.97684647 422 229 C282.74 229 143.48 229 0 229 C0 228.67 0 228.34 0 228 C134.97 228 269.94 228 409 228 C409 153.09 409 78.18 409 1 C274.03 1 139.06 1 0 1 C0 0.67 0 0.34 0 0 Z " fill="#D7E0E4" transform="translate(45,62)"/>
<path d="M0 0 C7.59 0 15.18 0 23 0 C23 47.85 23 95.7 23 145 C15.41 145 7.82 145 0 145 C0 97.15 0 49.3 0 0 Z " fill="#B2E49E" transform="translate(409,120)"/>
<path d="M0 0 C7.92 0 15.84 0 24 0 C24 31.35 24 62.7 24 95 C16.08 95 8.16 95 0 95 C0 63.65 0 32.3 0 0 Z " fill="#DA74AB" transform="translate(335,170)"/>
<path d="M0 0 C7.59 0 15.18 0 23 0 C23 21.45 23 42.9 23 65 C15.41 65 7.82 65 0 65 C0 43.55 0 22.1 0 0 Z " fill="#FEDF7C" transform="translate(262,200)"/>
<path d="M0 0 C8.29378871 4.85319508 13.62130985 11.72190938 17.921875 20.1796875 C18.87453715 22.16296666 18.87453715 22.16296666 21 23 C22.78511501 23.09384366 24.57071578 23.18288081 26.35742188 23.23876953 C36.98839417 23.6046029 45.2607495 25.50326471 53.2421875 33 C60.81000465 41.61049418 61.85212894 50.97373182 61.25292969 62.02050781 C60.67737997 66.52490661 58.49851543 70.28791994 56 74 C55.67 74 55.34 74 55 74 C54.83564453 72.7315625 54.83564453 72.7315625 54.66796875 71.4375 C52.90505548 58.82478716 49.48387146 47.53629071 39.015625 39.34375 C31.51646417 34.34430944 24.38326458 32.34267957 15.48266602 31.89550781 C11.87095904 31.62992146 10.29201533 31.29449845 7.703125 28.68359375 C7.14109375 27.79800781 6.5790625 26.91242188 6 26 C5.51917969 25.33097656 5.03835937 24.66195312 4.54296875 23.97265625 C4.09566406 23.34230469 3.64835937 22.71195313 3.1875 22.0625 C-3.74684163 12.86282483 -12.84887092 7.72821427 -24 5 C-33.09910097 3.81905866 -33.09910097 3.81905866 -41.52734375 6.56640625 C-43.23305297 8.29304442 -44.67090003 9.97273468 -46 12 C-46 9 -46 9 -44.453125 7.1328125 C-31.31443723 -4.84109798 -16.29428833 -7.55101166 0 0 Z " fill="#8ED5F6" transform="translate(168,92)"/>
<path d="M0 0 C5.94 0 11.88 0 18 0 C18.09221861 5.81745756 18.17173837 11.63234296 18.21972656 17.44995117 C18.23974646 19.4256249 18.26697092 21.40124009 18.30175781 23.37670898 C18.35070207 26.2291515 18.37306525 29.08080549 18.390625 31.93359375 C18.41127014 32.80584091 18.43191528 33.67808807 18.45318604 34.57676697 C18.45625045 43.09874133 15.54327396 50.13265786 9.7734375 56.4296875 C3.51200083 61.97395522 -3.13547307 64.12642838 -11.39415455 64.12304783 C-12.47002884 64.12503888 -13.54590313 64.12702993 -14.65437967 64.12908131 C-15.83044564 64.12616847 -17.00651161 64.12325563 -18.21821594 64.12025452 C-19.47205509 64.12110894 -20.72589424 64.12196337 -22.01772851 64.12284368 C-25.4953249 64.1250794 -28.97289049 64.12107996 -32.45048296 64.11606562 C-36.20162303 64.11174808 -39.95276135 64.11320847 -43.7039032 64.1139679 C-50.20214055 64.1144923 -56.70036785 64.11135418 -63.19860268 64.10573006 C-72.59396476 64.0976038 -81.98932199 64.09499868 -91.38468721 64.09374207 C-106.62796154 64.09155332 -121.87123052 64.08489803 -137.11450195 64.07543945 C-151.92211887 64.06626076 -166.72973433 64.05918216 -181.53735352 64.05493164 C-182.45006054 64.05466892 -183.36276757 64.05440619 -184.30313239 64.05413551 C-188.88190502 64.05283047 -193.46067765 64.05156676 -198.03945029 64.05032361 C-236.02630394 64.03995651 -274.01315162 64.02234301 -312 64 C-312 63.67 -312 63.34 -312 63 C-311.04805718 63.00138269 -311.04805718 63.00138269 -310.0768832 63.00279331 C-272.4743711 63.05639674 -234.87205978 63.06841697 -197.26952862 63.02634037 C-192.75585792 63.02132566 -188.24218692 63.01665884 -183.72851562 63.01220703 C-182.38061385 63.01086883 -182.38061385 63.01086883 -181.00548173 63.0095036 C-166.45009134 62.99588288 -151.89485848 63.01045262 -137.33948897 63.03541696 C-122.40739366 63.06040082 -107.47553048 63.05514471 -92.54345047 63.02174091 C-83.32733368 63.00207941 -74.11184818 63.00608349 -64.8957711 63.04023629 C-58.57831136 63.06138925 -52.26131677 63.05320278 -45.94390111 63.02184123 C-42.29725827 63.00460791 -38.65181357 63.0004101 -35.00523186 63.03101921 C-31.05243364 63.0638608 -27.10146253 63.03496832 -23.14865112 63 C-21.99495273 63.01941178 -20.84125435 63.03882357 -19.6525954 63.05882359 C-13.87387221 63.03889537 -13.87387221 63.03889537 -9.0026114 60.30456448 C-7.43000052 58.26420793 -6.18902163 56.28243215 -5 54 C-4.37696214 52.8688283 -4.37696214 52.8688283 -3.74133766 51.71480465 C-0.72680073 45.99847834 -0.39896544 40.64394026 -0.390625 34.27734375 C-0.37408875 33.29125626 -0.35755249 32.30516876 -0.34051514 31.28919983 C-0.29233523 28.1719013 -0.2707309 25.05508951 -0.25 21.9375 C-0.22181524 19.81052278 -0.19188435 17.68356794 -0.16015625 15.55664062 C-0.0865843 10.37113387 -0.03682666 5.1858926 0 0 Z " fill="#A4BCC0" transform="translate(479,336)"/>
<path d="M0 0 C0.81345886 -0.00700928 1.62691772 -0.01401855 2.46502686 -0.02124023 C5.15151192 -0.03883246 7.8369419 -0.02719351 10.5234375 -0.01367188 C12.39144086 -0.01636645 14.25944285 -0.02024857 16.12744141 -0.02526855 C20.04147705 -0.03116525 23.95514745 -0.02259515 27.86914062 -0.00390625 C32.88653639 0.01888345 37.90307631 0.00576128 42.92044067 -0.01819611 C46.77749074 -0.03264946 50.63433787 -0.02805023 54.49139404 -0.01768494 C56.34137066 -0.01501637 58.19136569 -0.01829198 60.0413208 -0.02760315 C62.62700207 -0.03776125 65.21129701 -0.02227898 67.796875 0 C68.56167175 -0.00809692 69.32646851 -0.01619385 70.11444092 -0.02453613 C73.59577053 0.03104287 75.54590207 0.2538383 78.36962891 2.36633301 C79.8984375 4.51757812 79.8984375 4.51757812 80.4609375 7.45507812 C79.69401115 11.63056601 78.20666372 12.89845791 74.8984375 15.51757812 C72.02573868 16.00786956 69.74833215 16.19390086 66.8828125 16.14868164 C66.09032104 16.15583694 65.29782959 16.16299225 64.48132324 16.17036438 C61.86976938 16.18723064 59.25993727 16.16786232 56.6484375 16.14648438 C54.82910012 16.14731327 53.00976282 16.14977343 51.19042969 16.15379333 C47.3806296 16.15664991 43.57141787 16.14196413 39.76171875 16.11450195 C34.88229554 16.08041924 30.00392425 16.08643862 25.12445068 16.10516453 C21.36856342 16.11574146 17.61292024 16.10679043 13.85705566 16.09177971 C12.05815354 16.08660251 10.25922587 16.08707409 8.46032715 16.09332466 C5.94434958 16.09878534 3.42986936 16.07837598 0.9140625 16.05102539 C-0.19733093 16.06081421 -0.19733093 16.06081421 -1.33117676 16.07080078 C-4.90842444 16.00479441 -6.99095014 15.58525456 -10.06738281 13.70298767 C-12.1015625 11.51757812 -12.1015625 11.51757812 -12.6640625 8.01757812 C-11.45262155 0.47972333 -6.79391329 -0.07192734 0 0 Z " fill="#050505" transform="translate(137.1015625,260.482421875)"/>
<path d="M0 0 C1.80712463 -0.01407143 1.80712463 -0.01407143 3.65075684 -0.02842712 C4.94356567 -0.01719315 6.23637451 -0.00595917 7.56835938 0.00561523 C8.91687091 0.00546013 10.26538289 0.00396928 11.6138916 0.00120544 C14.43501584 -0.00017639 17.25563035 0.01234219 20.07666016 0.03515625 C23.68479341 0.06354111 27.29208029 0.06080111 30.90027618 0.04806614 C33.68336154 0.04109641 36.46625279 0.04891283 39.24931335 0.06132317 C41.22401835 0.06800745 43.19875069 0.06370342 45.17346191 0.05921936 C46.37821167 0.07190353 47.58296143 0.08458771 48.82421875 0.09765625 C49.88169312 0.10305923 50.93916748 0.10846222 52.02868652 0.11402893 C55.36927398 0.56317538 57.25085549 1.44946195 59.91210938 3.50170898 C60.97460938 6.87670898 60.97460938 6.87670898 60.91210938 10.50170898 C59.29980469 13.18882751 59.29980469 13.18882751 56.91210938 15.50170898 C54.02832031 16.12989807 54.02832031 16.12989807 50.64648438 16.1328125 C49.37836914 16.14534561 48.11025391 16.15787872 46.80371094 16.17079163 C45.42316664 16.15852329 44.04263216 16.14510326 42.66210938 16.13061523 C41.24251117 16.13144416 39.82291307 16.13390445 38.40332031 16.13792419 C35.43069507 16.14078063 32.45882394 16.12609799 29.48632812 16.09863281 C25.67948342 16.06454865 21.8739869 16.07056877 18.06707764 16.08929539 C15.13644206 16.09987348 12.20611921 16.09092055 9.2755127 16.07591057 C7.87212045 16.07073413 6.46869548 16.07120407 5.06530762 16.07745552 C3.10274015 16.08291633 1.14015642 16.05966315 -0.82226562 16.03515625 C-1.93827148 16.02895767 -3.05427734 16.02275909 -4.20410156 16.01637268 C-7.7555046 15.38256134 -8.94013313 14.3575493 -11.08789062 11.50170898 C-11.65039062 8.00170898 -11.65039062 8.00170898 -11.08789062 4.50170898 C-7.50031149 0.85963324 -5.05270175 0.00079397 0 0 Z " fill="#060606" transform="translate(136.087890625,234.498291015625)"/>
<path d="M0 0 C0.93691177 -0.00619858 1.87382355 -0.01239716 2.83912659 -0.01878357 C4.81860313 -0.02588053 6.79813937 -0.02270987 8.77758789 -0.01000977 C11.80271602 0.00384356 14.82474311 -0.03020081 17.84960938 -0.06835938 C19.77474034 -0.06931072 21.69987517 -0.06745093 23.625 -0.0625 C24.52721786 -0.07575821 25.42943573 -0.08901642 26.35899353 -0.10267639 C30.8298403 -0.03656813 32.79997801 0.13529335 36.48461914 2.87915039 C38.37890625 5.56640625 38.37890625 5.56640625 38.44140625 9.19140625 C37.37890625 12.56640625 37.37890625 12.56640625 35.91601562 14.25024414 C31.96451737 16.3001409 28.11140687 16.0141989 23.72265625 16 C22.7833728 16.00524185 21.84408936 16.0104837 20.87634277 16.0158844 C18.89266955 16.02230095 16.90895827 16.02097235 14.92529297 16.01245117 C11.88961136 16.00393628 8.85580847 16.03271549 5.8203125 16.06445312 C3.89192765 16.06606512 1.96353946 16.06548764 0.03515625 16.0625 C-1.32591248 16.07935097 -1.32591248 16.07935097 -2.71447754 16.09654236 C-8.96684333 16.02734977 -8.96684333 16.02734977 -12.19335938 13.75415039 C-14.29824519 10.5287944 -14.15858498 8.32884483 -13.62109375 4.56640625 C-10.20881799 -0.64376656 -5.65576516 -0.03102251 0 0 Z " fill="#030303" transform="translate(138.62109375,209.43359375)"/>
<path d="M0 0 C26.4 0 52.8 0 80 0 C80 2.97 80 5.94 80 9 C53.6 9 27.2 9 0 9 C0 6.03 0 3.06 0 0 Z " fill="#2B4D66" transform="translate(216,415)"/>
<path d="M0 0 C0.86890869 -0.0038269 1.73781738 -0.00765381 2.63305664 -0.01159668 C4.46534386 -0.01431179 6.2976701 -0.00697867 8.12988281 0.00976562 C10.92861647 0.03118202 13.72478333 0.00995145 16.5234375 -0.015625 C18.30729731 -0.01298165 20.09115553 -0.00785652 21.875 0 C23.12518921 -0.01214539 23.12518921 -0.01214539 24.40063477 -0.02453613 C28.37740382 0.03939446 30.48498151 0.26038037 33.96875 2.34570312 C35.9375 4.53125 35.9375 4.53125 36.5 8.03125 C35.9375 11.53125 35.9375 11.53125 34.4921875 13.71679688 C30.64310744 16.45058539 27.11425342 16.10469202 22.5 16.0625 C21.5829126 16.0663269 20.6658252 16.07015381 19.72094727 16.07409668 C17.78433127 16.07681549 15.84767853 16.06945646 13.91113281 16.05273438 C10.94773447 16.03132394 7.98676049 16.05253669 5.0234375 16.078125 C3.14061965 16.07548172 1.25780331 16.07035673 -0.625 16.0625 C-1.95325806 16.07464539 -1.95325806 16.07464539 -3.30834961 16.08703613 C-9.41086575 15.99406974 -9.41086575 15.99406974 -12.6171875 13.71679688 C-14.7657151 10.46787474 -14.67313677 8.33076765 -14.0625 4.53125 C-9.85072045 -0.1443267 -5.89195791 -0.05723942 0 0 Z " fill="#030303" transform="translate(245.0625,359.46875)"/>
<path d="M0 0 C2.59944951 2.04324442 3.84799824 3.23718046 4.50170898 6.51782227 C4.49985596 7.44135498 4.49800293 8.3648877 4.49609375 9.31640625 C4.49706055 10.83331055 4.49706055 10.83331055 4.49804688 12.38085938 C4.47806641 13.43080078 4.45808594 14.48074219 4.4375 15.5625 C4.44458984 16.61630859 4.45167969 17.67011719 4.45898438 18.75585938 C4.39499859 26.46860748 4.39499859 26.46860748 2.68774414 28.76538086 C-0.12066139 30.81978658 -2.58225293 30.94003953 -6 31 C-8.70488305 28.96138442 -9.85259585 27.74320897 -10.51757812 24.39038086 C-10.52208984 23.42495361 -10.52660156 22.45952637 -10.53125 21.46484375 C-10.53640625 20.40845703 -10.5415625 19.35207031 -10.546875 18.26367188 C-10.53140625 17.16603516 -10.5159375 16.06839844 -10.5 14.9375 C-10.51546875 13.83599609 -10.5309375 12.73449219 -10.546875 11.59960938 C-10.54171875 10.54451172 -10.5365625 9.48941406 -10.53125 8.40234375 C-10.52673828 7.43804443 -10.52222656 6.47374512 -10.51757812 5.48022461 C-10 3 -10 3 -8.15429688 1.18969727 C-5.19838297 -0.4426881 -3.32708033 -0.48519921 0 0 Z " fill="#000001" transform="translate(259,432)"/>
<path d="M0 0 C1.12631836 -0.0299707 1.12631836 -0.0299707 2.27539062 -0.06054688 C6.1608969 -0.05712954 8.16050758 0.19515301 11.5625 2.24609375 C13.5625 4.4375 13.5625 4.4375 14.125 7.9375 C13.5625 11.4375 13.5625 11.4375 12.12109375 13.62109375 C8.25455357 16.36604212 4.69200392 16.05935261 0.0625 16 C-0.79214844 16.02384766 -1.64679688 16.04769531 -2.52734375 16.07226562 C-6.81278315 16.0622373 -8.74309095 16.05556588 -12.03125 13.12890625 C-13.96109824 9.43539115 -13.60756973 7.38648533 -12.4375 3.4375 C-8.97382826 -0.36108147 -4.80860011 -0.04517045 0 0 Z " fill="#070707" transform="translate(420.4375,77.5625)"/>
<path d="M0 0 C1.19786133 -0.03577148 1.19786133 -0.03577148 2.41992188 -0.07226562 C6.74603454 -0.06151307 8.56888817 0.1904023 12.125 2.87109375 C14.0625 5.5625 14.0625 5.5625 14.125 9.1875 C12.91713748 13.02423978 12.54465942 13.72605599 9.0625 15.5625 C6.05515327 16.0236039 3.10012826 16.02668843 0.0625 16 C-0.74445313 16.01998047 -1.55140625 16.03996094 -2.3828125 16.06054688 C-6.21784501 16.05738266 -8.28639393 16.02771931 -11.46875 13.75390625 C-13.62732129 10.53327196 -13.47826003 8.34782019 -12.9375 4.5625 C-9.56626024 -0.43623481 -5.51874165 -0.07535631 0 0 Z " fill="#050606" transform="translate(346.9375,125.4375)"/>
<path d="M0 0 C0.79857422 -0.01546875 1.59714844 -0.0309375 2.41992188 -0.046875 C6.44037193 -0.02022744 8.58875493 0.21086268 12.08984375 2.34765625 C14.0625 4.5 14.0625 4.5 14.6875 7.4375 C13.83858834 11.59716714 12.38915123 12.88992508 9.0625 15.5 C6.20472077 16.21498894 3.49538102 16.20098137 0.5625 16.125 C-0.55705078 16.15400391 -0.55705078 16.15400391 -1.69921875 16.18359375 C-5.89245063 16.1464855 -7.52391257 15.82407568 -10.93359375 13.15234375 C-12.9375 10.5 -12.9375 10.5 -13.5 7.4375 C-12.03908917 -0.19170102 -6.54954675 -0.12625632 0 0 Z " fill="#050505" transform="translate(272.9375,154.5)"/>
<path d="M0 0 C1.11503906 0.01289063 2.23007813 0.02578125 3.37890625 0.0390625 C6.31878096 0.36196062 8.00866933 0.73374934 10.4375 2.375 C12.76499345 5.86624017 12.94049316 7.26722251 12.4375 11.375 C10.78385367 13.76456224 9.48151191 15.15096959 6.57958984 15.77368164 C4.35194016 15.95068781 2.17169567 15.96974221 -0.0625 15.9375 C-0.82175781 15.96134766 -1.58101562 15.98519531 -2.36328125 16.00976562 C-6.44205831 15.9990508 -8.00153114 15.89521841 -11.08984375 13.03125 C-12.5625 10.375 -12.5625 10.375 -12.625 7.3125 C-10.39743906 1.15394918 -6.1756179 -0.15743174 0 0 Z " fill="#060809" transform="translate(154.5625,146.625)"/>
<path d="M0 0 C2.64 0 5.28 0 8 0 C8 4.95 8 9.9 8 15 C6.35 15.33 4.7 15.66 3 16 C3 11.05 3 6.1 3 1 C2.01 0.67 1.02 0.34 0 0 Z " fill="#345976" transform="translate(472,216)"/>
</svg>
