<?xml version="1.0" encoding="UTF-8"?>
<svg version="1.1" xmlns="http://www.w3.org/2000/svg" width="512" height="512">
<path d="M0 0 C8.04426812 6.57257197 13.20074249 15.21604996 18.40405273 24.06103516 C19.15090489 25.31349009 19.89888772 26.56527142 20.64794922 27.81640625 C22.14556354 30.31833727 23.63968852 32.82229676 25.1315918 35.32763672 C27.95913958 40.06452962 30.8631227 44.75316738 33.77905273 49.43603516 C34.82617378 51.12208029 35.87304549 52.8082803 36.91967773 54.49462891 C37.71535156 55.77635986 37.71535156 55.77635986 38.52709961 57.08398438 C41.70590389 62.21508897 44.86686961 67.35717679 48.02905273 72.49853516 C49.03657593 74.13653076 49.03657593 74.13653076 50.06445312 75.80761719 C51.4324488 78.03185445 52.80036833 80.25613855 54.16821289 82.48046875 C57.51648962 87.92471083 60.86660032 93.36782406 64.21655273 98.81103516 C65.54989515 100.97769623 66.88322848 103.1443629 68.21655273 105.31103516 C68.87655273 106.38353516 69.53655273 107.45603516 70.21655273 108.56103516 C92.21655273 144.31103515 92.21655273 144.31103515 94.21728516 147.56225586 C95.54814075 149.72487588 96.87903256 151.8874736 98.20996094 154.05004883 C101.58150399 159.52844524 104.95238012 165.00725007 108.32202148 170.48681641 C114.44100924 180.43601023 120.56399084 190.38256031 126.71655273 200.31103516 C132.85370376 210.21464127 138.96172235 220.13603913 145.06420898 230.06103516 C147.55246741 234.10763871 150.04315077 238.15271723 152.53764343 242.19548035 C153.99695353 244.56061191 155.45544711 246.92624652 156.91390991 249.29190063 C157.93824966 250.9526478 158.96373752 252.61268665 159.98925781 254.27270508 C161.74029919 257.11367348 163.48194371 259.96001084 165.21655273 262.81103516 C165.65370605 263.52316162 166.09085937 264.23528809 166.54125977 264.96899414 C169.04750652 269.16471479 169.77342385 271.89200696 169.21655273 276.81103516 C168.58943007 278.16341801 167.92958389 279.50190995 167.21655273 280.81103516 C168.37282243 282.82925136 169.56784724 284.82530167 170.77905273 286.81103516 C171.4403418 287.92478516 172.10163086 289.03853516 172.78295898 290.18603516 C173.58604492 291.05228516 174.38913086 291.91853516 175.21655273 292.81103516 C176.90071289 292.78009766 176.90071289 292.78009766 178.61889648 292.74853516 C182.21655273 292.81103516 182.21655273 292.81103516 183.80444336 294.02539062 C187.76743791 298.55139838 190.77252766 303.74854722 193.77905273 308.93603516 C194.83104458 310.72071151 195.88447785 312.50453883 196.93920898 314.28759766 C197.74769287 315.65706543 197.74769287 315.65706543 198.57250977 317.05419922 C201.2292643 321.50921439 203.97372963 325.90868883 206.71655273 330.31103516 C208.34010408 332.93098985 209.9619035 335.55202143 211.58325195 338.17333984 C212.68424897 339.95139242 213.7874885 341.72805811 214.89282227 343.50341797 C224.9838482 359.74693327 232.67928457 373.45059992 228.52124023 393.09619141 C224.82442603 404.14003552 217.62719314 414.05444637 207.11108398 419.38525391 C200.11845279 422.35776096 194.45150105 423.9614683 186.85500336 423.94525623 C186.10772197 423.94760846 185.36044058 423.94996069 184.5905143 423.9523842 C182.07241333 423.95907087 179.55436399 423.95861608 177.03625488 423.95820618 C175.21819241 423.96150502 173.40013068 423.96523063 171.58206987 423.96934766 C166.57477791 423.97937363 161.56749793 423.98308542 156.56019735 423.98573697 C151.16393619 423.98963828 145.76768454 423.99921679 140.37142944 424.00794983 C127.33325239 424.02771983 114.29507455 424.03778144 101.25688624 424.04667762 C95.11787665 424.05105992 88.97886792 424.05642691 82.83985901 424.06166649 C62.43352182 424.07867982 42.02718517 424.09317393 21.62084198 424.10041523 C16.32429504 424.10232515 11.0277481 424.10424547 5.73120117 424.10620117 C3.75653818 424.10692678 3.75653818 424.10692678 1.741983 424.10766705 C-19.58275668 424.11596706 -40.90742849 424.14130302 -62.23214608 424.17378185 C-84.12293202 424.20685114 -106.01368944 424.2248639 -127.90450048 424.22805947 C-140.19648561 424.23022476 -152.48838894 424.23897615 -164.78034973 424.26452065 C-175.24910414 424.28622587 -185.71775689 424.29427892 -196.18653125 424.28455386 C-201.52672783 424.2800086 -206.86671465 424.28190874 -212.20688248 424.30131531 C-217.09998866 424.3189434 -221.99273201 424.31795194 -226.88584203 424.30241802 C-228.65174296 424.30004142 -230.417669 424.30436816 -232.18353158 424.31624667 C-247.06815015 424.41013326 -259.61415491 422.31588604 -270.93969727 411.81103516 C-279.35537624 403.01853474 -282.9463358 393.24737447 -283.09594727 381.24853516 C-283.13945312 380.12608398 -283.13945312 380.12608398 -283.18383789 378.98095703 C-283.30302668 368.1897876 -278.27449347 359.29385295 -272.78344727 350.31103516 C-272.21021729 349.35745117 -271.6369873 348.40386719 -271.04638672 347.42138672 C-266.95688988 340.6500036 -262.76368723 333.94501462 -258.51367188 327.2734375 C-254.22251262 320.53605967 -250.02575702 313.74296983 -245.84594727 306.93603516 C-244.82476807 305.27326538 -244.82476807 305.27326538 -243.78295898 303.5769043 C-242.42826239 301.37095657 -241.07360685 299.16498362 -239.71899414 296.95898438 C-236.85413631 292.29961544 -233.97654229 287.64818649 -231.09594727 282.99853516 C-230.5692041 282.14815674 -230.04246094 281.29777832 -229.49975586 280.42163086 C-227.40695574 277.04365916 -225.31345051 273.66612471 -223.2199707 270.28857422 C-216.72384297 259.80664565 -210.24345272 249.31527159 -203.78344727 238.81103516 C-196.28700335 226.62150686 -188.75900053 214.45179348 -181.2199707 202.28857422 C-174.72384297 191.80664565 -168.24345272 181.31527159 -161.78344727 170.81103516 C-154.28700335 158.62150686 -146.75900053 146.45179348 -139.2199707 134.28857422 C-132.72384297 123.80664565 -126.24345272 113.31527159 -119.78344727 102.81103516 C-112.28700335 90.62150686 -104.75900053 78.45179348 -97.2199707 66.28857422 C-95.63663772 63.7337625 -94.05370018 61.17870628 -92.47094727 58.62353516 C-91.94509033 57.77484863 -91.4192334 56.92616211 -90.87744141 56.05175781 C-87.46556954 50.54101976 -84.06822702 45.02153573 -80.67900085 39.49684143 C-77.63962309 34.5434292 -74.58970965 29.59656512 -71.53540039 24.65234375 C-70.46274825 22.91272201 -69.39302139 21.17128698 -68.32836914 19.42675781 C-60.30107534 6.27363862 -51.78444584 -3.67297152 -36.29907227 -7.86083984 C-23.20719666 -9.56847579 -10.84130626 -8.00504664 0 0 Z " fill="#F8E070" transform="translate(282.783447265625,48.18896484375)"/>
<path d="M0 0 C8.04426812 6.57257197 13.20074249 15.21604996 18.40405273 24.06103516 C19.15090489 25.31349009 19.89888772 26.56527142 20.64794922 27.81640625 C22.14556354 30.31833727 23.63968852 32.82229676 25.1315918 35.32763672 C27.95913958 40.06452962 30.8631227 44.75316738 33.77905273 49.43603516 C34.82617378 51.12208029 35.87304549 52.8082803 36.91967773 54.49462891 C37.71535156 55.77635986 37.71535156 55.77635986 38.52709961 57.08398438 C41.70590389 62.21508897 44.86686961 67.35717679 48.02905273 72.49853516 C49.03657593 74.13653076 49.03657593 74.13653076 50.06445312 75.80761719 C51.4324488 78.03185445 52.80036833 80.25613855 54.16821289 82.48046875 C57.51648962 87.92471083 60.86660032 93.36782406 64.21655273 98.81103516 C65.54989515 100.97769623 66.88322848 103.1443629 68.21655273 105.31103516 C68.87655273 106.38353516 69.53655273 107.45603516 70.21655273 108.56103516 C92.21655273 144.31103515 92.21655273 144.31103515 94.21728516 147.56225586 C95.54814075 149.72487588 96.87903256 151.8874736 98.20996094 154.05004883 C101.58150399 159.52844524 104.95238012 165.00725007 108.32202148 170.48681641 C114.44100924 180.43601023 120.56399084 190.38256031 126.71655273 200.31103516 C132.85370376 210.21464127 138.96172235 220.13603913 145.06420898 230.06103516 C147.55246741 234.10763871 150.04315077 238.15271723 152.53764343 242.19548035 C153.99695353 244.56061191 155.45544711 246.92624652 156.91390991 249.29190063 C157.93824966 250.9526478 158.96373752 252.61268665 159.98925781 254.27270508 C161.74029919 257.11367348 163.48194371 259.96001084 165.21655273 262.81103516 C165.65370605 263.52316162 166.09085937 264.23528809 166.54125977 264.96899414 C169.04750652 269.16471479 169.77342385 271.89200696 169.21655273 276.81103516 C168.58943007 278.16341801 167.92958389 279.50190995 167.21655273 280.81103516 C168.37282243 282.82925136 169.56784724 284.82530167 170.77905273 286.81103516 C171.4403418 287.92478516 172.10163086 289.03853516 172.78295898 290.18603516 C173.58604492 291.05228516 174.38913086 291.91853516 175.21655273 292.81103516 C176.90071289 292.78009766 176.90071289 292.78009766 178.61889648 292.74853516 C182.21655273 292.81103516 182.21655273 292.81103516 183.80444336 294.02539062 C187.76743791 298.55139838 190.77252766 303.74854722 193.77905273 308.93603516 C194.83104458 310.72071151 195.88447785 312.50453883 196.93920898 314.28759766 C197.74769287 315.65706543 197.74769287 315.65706543 198.57250977 317.05419922 C201.2292643 321.50921439 203.97372963 325.90868883 206.71655273 330.31103516 C208.34010408 332.93098985 209.9619035 335.55202143 211.58325195 338.17333984 C212.68424897 339.95139242 213.7874885 341.72805811 214.89282227 343.50341797 C224.9838482 359.74693327 232.67928457 373.45059992 228.52124023 393.09619141 C224.82442603 404.14003552 217.62719314 414.05444637 207.11108398 419.38525391 C200.11845279 422.35776096 194.45150105 423.9614683 186.85500336 423.94525623 C186.10772197 423.94760846 185.36044058 423.94996069 184.5905143 423.9523842 C182.07241333 423.95907087 179.55436399 423.95861608 177.03625488 423.95820618 C175.21819241 423.96150502 173.40013068 423.96523063 171.58206987 423.96934766 C166.57477791 423.97937363 161.56749793 423.98308542 156.56019735 423.98573697 C151.16393619 423.98963828 145.76768454 423.99921679 140.37142944 424.00794983 C127.33325239 424.02771983 114.29507455 424.03778144 101.25688624 424.04667762 C95.11787665 424.05105992 88.97886792 424.05642691 82.83985901 424.06166649 C62.43352182 424.07867982 42.02718517 424.09317393 21.62084198 424.10041523 C16.32429504 424.10232515 11.0277481 424.10424547 5.73120117 424.10620117 C3.75653818 424.10692678 3.75653818 424.10692678 1.741983 424.10766705 C-19.58275668 424.11596706 -40.90742849 424.14130302 -62.23214608 424.17378185 C-84.12293202 424.20685114 -106.01368944 424.2248639 -127.90450048 424.22805947 C-140.19648561 424.23022476 -152.48838894 424.23897615 -164.78034973 424.26452065 C-175.24910414 424.28622587 -185.71775689 424.29427892 -196.18653125 424.28455386 C-201.52672783 424.2800086 -206.86671465 424.28190874 -212.20688248 424.30131531 C-217.09998866 424.3189434 -221.99273201 424.31795194 -226.88584203 424.30241802 C-228.65174296 424.30004142 -230.417669 424.30436816 -232.18353158 424.31624667 C-247.06815015 424.41013326 -259.61415491 422.31588604 -270.93969727 411.81103516 C-279.35537624 403.01853474 -282.9463358 393.24737447 -283.09594727 381.24853516 C-283.13945312 380.12608398 -283.13945312 380.12608398 -283.18383789 378.98095703 C-283.30302668 368.1897876 -278.27449347 359.29385295 -272.78344727 350.31103516 C-272.21021729 349.35745117 -271.6369873 348.40386719 -271.04638672 347.42138672 C-266.95688988 340.6500036 -262.76368723 333.94501462 -258.51367188 327.2734375 C-254.22251262 320.53605967 -250.02575702 313.74296983 -245.84594727 306.93603516 C-244.82476807 305.27326538 -244.82476807 305.27326538 -243.78295898 303.5769043 C-242.42826239 301.37095657 -241.07360685 299.16498362 -239.71899414 296.95898438 C-236.85413631 292.29961544 -233.97654229 287.64818649 -231.09594727 282.99853516 C-230.5692041 282.14815674 -230.04246094 281.29777832 -229.49975586 280.42163086 C-227.40695574 277.04365916 -225.31345051 273.66612471 -223.2199707 270.28857422 C-216.72384297 259.80664565 -210.24345272 249.31527159 -203.78344727 238.81103516 C-196.28700335 226.62150686 -188.75900053 214.45179348 -181.2199707 202.28857422 C-174.72384297 191.80664565 -168.24345272 181.31527159 -161.78344727 170.81103516 C-154.28700335 158.62150686 -146.75900053 146.45179348 -139.2199707 134.28857422 C-132.72384297 123.80664565 -126.24345272 113.31527159 -119.78344727 102.81103516 C-112.28700335 90.62150686 -104.75900053 78.45179348 -97.2199707 66.28857422 C-95.63663772 63.7337625 -94.05370018 61.17870628 -92.47094727 58.62353516 C-91.94509033 57.77484863 -91.4192334 56.92616211 -90.87744141 56.05175781 C-87.46556954 50.54101976 -84.06822702 45.02153573 -80.67900085 39.49684143 C-77.63962309 34.5434292 -74.58970965 29.59656512 -71.53540039 24.65234375 C-70.46274825 22.91272201 -69.39302139 21.17128698 -68.32836914 19.42675781 C-60.30107534 6.27363862 -51.78444584 -3.67297152 -36.29907227 -7.86083984 C-23.20719666 -9.56847579 -10.84130626 -8.00504664 0 0 Z M-26.78344727 43.81103516 C-31.10557838 49.68930881 -34.83781303 56.03758026 -38.65844727 62.24853516 C-39.21016602 63.1425 -39.76188477 64.03646484 -40.33032227 64.95751953 C-42.15002849 67.90746551 -43.96705666 70.85904658 -45.78344727 73.81103516 C-46.42701172 74.85662598 -47.07057617 75.9022168 -47.73364258 76.97949219 C-50.43403832 81.3671396 -53.13399936 85.75505375 -55.83300781 90.14355469 C-62.64728946 101.22157124 -69.49495883 112.27876431 -76.34692383 123.33349609 C-82.84305156 133.81542466 -89.32344181 144.30679872 -95.78344727 154.81103516 C-103.27989118 167.00056346 -110.807894 179.17027683 -118.34692383 191.33349609 C-124.84305156 201.81542466 -131.32344181 212.30679872 -137.78344727 222.81103516 C-145.27989118 235.00056346 -152.807894 247.17027683 -160.34692383 259.33349609 C-166.84305156 269.81542466 -173.32344181 280.30679872 -179.78344727 290.81103516 C-187.27989118 303.00056346 -194.807894 315.17027683 -202.34692383 327.33349609 C-205.55711524 332.51335069 -208.76368428 337.69542592 -211.96801758 342.87890625 C-213.63473909 345.57085425 -215.30541073 348.26031665 -216.97731018 350.9490509 C-218.45016416 353.31946795 -219.91964236 355.69196676 -221.38851929 358.06484985 C-222.44950281 359.77644071 -223.51450592 361.4855378 -224.57958984 363.19458008 C-225.22822998 364.24363525 -225.87687012 365.29269043 -226.54516602 366.37353516 C-227.12226318 367.30294922 -227.69936035 368.23236328 -228.29394531 369.18994141 C-229.71031384 371.68234143 -230.74802518 374.14379762 -231.78344727 376.81103516 C-230.98831223 376.8169014 -230.19317719 376.82276764 -229.37394714 376.82881165 C-221.88415131 376.88669167 -214.39468994 376.95874073 -206.90519238 377.04675007 C-203.0546547 377.09149687 -199.20422388 377.13074313 -195.35351562 377.1574707 C-191.63803162 377.18346122 -187.92295787 377.22383251 -184.20772743 377.27422142 C-182.78959566 377.29091912 -181.37139287 377.30241532 -179.9531765 377.30864906 C-177.96834486 377.31825769 -175.98364145 377.34799799 -173.99902344 377.37866211 C-172.86873215 377.38976517 -171.73844086 377.40086823 -170.57389832 377.41230774 C-167.78344727 377.81103516 -167.78344727 377.81103516 -165.95747375 379.15055847 C-164.78344727 380.81103516 -164.78344727 380.81103516 -163.78344727 383.81103516 C-158.17344727 383.81103516 -152.56344727 383.81103516 -146.78344727 383.81103516 C-146.12344727 382.16103516 -145.46344727 380.51103516 -144.78344727 378.81103516 C-142.21813806 377.52838055 -140.39793285 377.68020951 -137.52417564 377.67236996 C-136.40202357 377.66689551 -135.27987149 377.66142107 -134.1237148 377.65578073 C-132.88054608 377.65480263 -131.63737736 377.65382452 -130.35653687 377.65281677 C-129.04400771 377.6478788 -127.73147855 377.64294082 -126.37917578 377.63785321 C-122.72379244 377.62423504 -119.06841843 377.61684314 -115.41301632 377.61042655 C-111.47571654 377.60243871 -107.53843628 377.5887354 -103.60115051 377.57571411 C-96.77547185 377.55392837 -89.94979123 377.53579157 -83.12409592 377.52010918 C-73.25519677 377.49742962 -63.38631922 377.46928417 -53.51743837 377.4397899 C-37.50715919 377.39209047 -21.4968712 377.34883267 -5.48657227 377.30834961 C10.06909878 377.26900663 25.62476198 377.22758329 41.18041992 377.18334961 C42.13872006 377.18062534 43.09702019 377.17790107 44.08435972 377.17509424 C48.89170542 377.16141496 53.69905101 377.14769465 58.50639653 377.13395393 C98.40976563 377.01995223 138.31315155 376.91315106 178.21655273 376.81103516 C176.70798185 372.91943875 174.93853053 369.50276921 172.75952148 365.93603516 C172.42051819 365.37894867 172.08151489 364.82186218 171.73223877 364.24789429 C170.62658919 362.43329128 169.51544738 360.62212413 168.40405273 358.81103516 C167.62848515 357.54117337 166.85317859 356.27115213 166.078125 355.00097656 C160.59299988 346.02064482 155.06476343 337.06697659 149.51342773 328.12744141 C145.79411526 322.13609448 142.09847369 316.13025309 138.40405273 310.12353516 C137.73237061 309.03153809 137.06068848 307.93954102 136.36865234 306.81445312 C135.00065667 304.59021586 133.63273714 302.36593176 132.26489258 300.14160156 C128.91661585 294.69735948 125.56650514 289.25424625 122.21655273 283.81103516 C120.88321032 281.64437408 119.54987699 279.47770741 118.21655273 277.31103516 C117.55655273 276.23853516 116.89655273 275.16603516 116.21655273 274.06103516 C30.21655273 134.31103515 30.21655273 134.31103515 28.21582031 131.05981445 C26.88496472 128.89719443 25.5540729 126.73459671 24.22314453 124.57202148 C20.85160148 119.09362507 17.48072534 113.61482024 14.11108398 108.13525391 C6.40686183 95.60819787 -1.30086551 83.08340399 -9.05932617 70.58984375 C-10.30268621 68.58588964 -11.54433826 66.58087545 -12.78491211 64.57519531 C-14.86427932 61.21413877 -16.94841903 57.85608212 -19.03344727 54.49853516 C-19.69030518 53.43489746 -20.34716309 52.37125977 -21.02392578 51.27539062 C-21.63034912 50.30102051 -22.23677246 49.32665039 -22.86157227 48.32275391 C-23.40201172 47.45094482 -23.94245117 46.57913574 -24.49926758 45.6809082 C-24.92304688 45.0638501 -25.34682617 44.44679199 -25.78344727 43.81103516 C-26.11344727 43.81103516 -26.44344727 43.81103516 -26.78344727 43.81103516 Z " fill="#8C808D" transform="translate(282.783447265625,48.18896484375)"/>
<path d="M0 0 C8.04426812 6.57257197 13.20074249 15.21604996 18.40405273 24.06103516 C19.15090489 25.31349009 19.89888772 26.56527142 20.64794922 27.81640625 C22.14556354 30.31833727 23.63968852 32.82229676 25.1315918 35.32763672 C27.95913958 40.06452962 30.8631227 44.75316738 33.77905273 49.43603516 C34.82617378 51.12208029 35.87304549 52.8082803 36.91967773 54.49462891 C37.71535156 55.77635986 37.71535156 55.77635986 38.52709961 57.08398438 C41.70590389 62.21508897 44.86686961 67.35717679 48.02905273 72.49853516 C49.03657593 74.13653076 49.03657593 74.13653076 50.06445312 75.80761719 C51.4324488 78.03185445 52.80036833 80.25613855 54.16821289 82.48046875 C57.51648962 87.92471083 60.86660032 93.36782406 64.21655273 98.81103516 C65.54989515 100.97769623 66.88322848 103.1443629 68.21655273 105.31103516 C68.87655273 106.38353516 69.53655273 107.45603516 70.21655273 108.56103516 C92.21655273 144.31103515 92.21655273 144.31103515 94.21728516 147.56225586 C95.54814075 149.72487588 96.87903256 151.8874736 98.20996094 154.05004883 C101.58150399 159.52844524 104.95238012 165.00725007 108.32202148 170.48681641 C114.44100924 180.43601023 120.56399084 190.38256031 126.71655273 200.31103516 C132.85370376 210.21464127 138.96172235 220.13603913 145.06420898 230.06103516 C147.55246741 234.10763871 150.04315077 238.15271723 152.53764343 242.19548035 C153.99695353 244.56061191 155.45544711 246.92624652 156.91390991 249.29190063 C157.93824966 250.9526478 158.96373752 252.61268665 159.98925781 254.27270508 C161.74029867 257.11367264 163.48182458 259.96008465 165.21655273 262.81103516 C165.65370605 263.52243652 166.09085937 264.23383789 166.54125977 264.96679688 C169.04224991 269.14984932 169.78273147 271.90415277 169.21655273 276.81103516 C167.21655273 279.81103516 167.21655273 279.81103516 165.22827148 280.53369141 C164.4612793 280.64583984 163.69428711 280.75798828 162.90405273 280.87353516 C162.14479492 281.00888672 161.38553711 281.14423828 160.60327148 281.28369141 C156.81351603 280.53318337 155.27935145 277.8446504 153.21655273 274.81103516 C150.96792215 271.33781202 148.83509936 267.80227408 146.71655273 264.24853516 C145.46465253 262.169986 144.21203343 260.09186968 142.95874023 258.01416016 C142.33064453 256.97066406 141.70254883 255.92716797 141.05541992 254.85205078 C138.35114138 250.37986629 135.59976708 245.93759017 132.84155273 241.49853516 C127.94859549 233.61368201 123.07683607 225.71607169 118.21655273 217.81103516 C113.39509345 209.97030143 108.56551406 202.13479158 103.71655273 194.31103516 C96.87716101 183.27438209 90.0748765 172.2150042 83.27368164 161.15478516 C81.22879846 157.83093991 79.18197408 154.5082982 77.13452148 151.18603516 C70.73911572 140.80640407 64.35892298 130.41828531 58.02905273 119.99853516 C53.14124539 111.95327562 48.21380412 103.93399361 43.25097656 95.93481445 C38.88938965 88.90383384 34.55011416 81.85931958 30.21655273 74.81103516 C24.81055205 66.02041356 19.39856649 57.23361966 13.95678711 48.46508789 C11.18837446 44.00357143 8.43339491 39.53447543 5.69702148 35.05322266 C5.11460693 34.10294189 4.53219238 33.15266113 3.93212891 32.17358398 C2.82296436 30.3632797 1.71740474 28.55075956 0.61621094 26.7355957 C-4.14714653 18.97769198 -8.49579589 12.21338041 -17.54907227 9.22900391 C-25.79022224 7.68739019 -34.47338249 7.61044367 -41.75610352 12.03369141 C-47.96729321 17.47895404 -52.04906286 24.197666 -56.22094727 31.24853516 C-57.45788505 33.31053958 -58.69621122 35.37171166 -59.93579102 37.43212891 C-60.56984863 38.48770996 -61.20390625 39.54329102 -61.85717773 40.63085938 C-64.9433779 45.72602331 -68.11309991 50.76795755 -71.28344727 55.81103516 C-76.17697336 63.60873103 -81.01210725 71.43798765 -85.78344727 79.31103516 C-90.51652357 87.11934552 -95.30832173 94.88737928 -100.15844727 102.62353516 C-108.10957722 115.30612921 -115.95162856 128.0545204 -123.78344727 140.81103516 C-132.22982852 154.56855319 -140.70465443 168.30570135 -149.27978516 181.98339844 C-153.5006601 188.72768895 -157.65919182 195.50729017 -161.78344727 202.31103516 C-166.51661236 210.1192926 -171.30832082 217.88737783 -176.15844727 225.62353516 C-183.42302113 237.21102547 -190.59762904 248.85237511 -197.75415039 260.50683594 C-201.15695848 266.04745248 -204.56366103 271.58567169 -207.97094727 277.12353516 C-208.63642578 278.20513916 -209.3019043 279.28674316 -209.98754883 280.40112305 C-216.75242527 291.3919655 -223.54771223 302.36387488 -230.34692383 313.33349609 C-233.56545579 318.52680871 -236.7814311 323.72169128 -239.99438477 328.91845703 C-241.25664385 330.95929295 -242.51974439 332.99960855 -243.78344727 335.03955078 C-261.18804743 359.13562281 -261.18804743 359.13562281 -266.78344727 386.81103516 C-264.20440479 394.71946431 -260.30494473 400.9743117 -252.78344727 404.81103516 C-247.26679684 407.14784217 -243.08789431 408.18660504 -237.01782417 408.19135189 C-236.27545846 408.19601181 -235.53309274 408.20067173 -234.76823109 408.20547286 C-232.29079013 408.21738497 -229.81390144 408.2080423 -227.3364563 408.19871521 C-225.53826244 408.20288979 -223.74007122 408.20836799 -221.94188488 408.21503502 C-217.00812704 408.22949208 -212.07453623 408.22524405 -207.14076924 408.21786821 C-201.81686283 408.2131395 -196.4929927 408.22564378 -191.1690979 408.23588562 C-180.74199311 408.25308485 -170.31494855 408.25391127 -159.88783325 408.24867272 C-151.41270247 408.24463182 -142.93758949 408.24607363 -134.46245956 408.25142097 C-132.65333004 408.25254361 -132.65333004 408.25254361 -130.80765244 408.25368892 C-128.35751002 408.25522039 -125.9073676 408.25675874 -123.45722519 408.25830389 C-100.47826272 408.27203304 -77.4993343 408.26658835 -54.52037261 408.25511868 C-33.49845897 408.24518625 -12.47663334 408.25812643 8.54526673 408.28205287 C30.13107433 408.30643601 51.71684092 408.31605364 73.30266201 408.30940014 C85.42125134 408.30590613 97.53977298 408.308152 109.6583519 408.32565117 C119.97483165 408.34036331 130.29119604 408.34102146 140.60767351 408.32358026 C145.87068275 408.31505975 151.13348581 408.31294649 156.39648438 408.32823181 C161.21655849 408.34205738 166.03624938 408.33734302 170.8563012 408.31799258 C172.5978155 408.31422573 174.33936034 408.31717424 176.08084749 408.32760423 C186.81485265 408.38730833 195.28399514 407.61682682 204.52905273 401.68603516 C210.54629956 395.24898041 213.86289862 386.93939083 213.73608398 378.14306641 C211.87151283 366.1845762 202.93127512 354.92054705 196.50561523 344.95556641 C192.26919284 338.37256117 188.22283488 331.67504341 184.1784668 324.97290039 C181.68767014 320.84948955 179.19616438 316.73705628 176.55249023 312.70947266 C175.98062988 311.82751221 175.98062988 311.82751221 175.3972168 310.92773438 C174.43484326 309.45390515 173.45548501 307.99120206 172.47436523 306.52978516 C170.8845304 303.09337198 170.88492393 300.55622977 171.21655273 296.81103516 C172.77905273 294.37353516 172.77905273 294.37353516 175.21655273 292.81103516 C178.59155273 292.12353516 178.59155273 292.12353516 182.21655273 292.81103516 C187.22149673 297.15806785 190.49630865 303.27195622 193.77905273 308.93603516 C194.83104458 310.72071151 195.88447785 312.50453883 196.93920898 314.28759766 C197.74769287 315.65706543 197.74769287 315.65706543 198.57250977 317.05419922 C201.2292643 321.50921439 203.97372963 325.90868883 206.71655273 330.31103516 C208.34010408 332.93098985 209.9619035 335.55202143 211.58325195 338.17333984 C212.68424897 339.95139242 213.7874885 341.72805811 214.89282227 343.50341797 C224.9838482 359.74693327 232.67928457 373.45059992 228.52124023 393.09619141 C224.82442603 404.14003552 217.62719314 414.05444637 207.11108398 419.38525391 C200.11845279 422.35776096 194.45150105 423.9614683 186.85500336 423.94525623 C186.10772197 423.94760846 185.36044058 423.94996069 184.5905143 423.9523842 C182.07241333 423.95907087 179.55436399 423.95861608 177.03625488 423.95820618 C175.21819241 423.96150502 173.40013068 423.96523063 171.58206987 423.96934766 C166.57477791 423.97937363 161.56749793 423.98308542 156.56019735 423.98573697 C151.16393619 423.98963828 145.76768454 423.99921679 140.37142944 424.00794983 C127.33325239 424.02771983 114.29507455 424.03778144 101.25688624 424.04667762 C95.11787665 424.05105992 88.97886792 424.05642691 82.83985901 424.06166649 C62.43352182 424.07867982 42.02718517 424.09317393 21.62084198 424.10041523 C16.32429504 424.10232515 11.0277481 424.10424547 5.73120117 424.10620117 C3.75653818 424.10692678 3.75653818 424.10692678 1.741983 424.10766705 C-19.58275668 424.11596706 -40.90742849 424.14130302 -62.23214608 424.17378185 C-84.12293202 424.20685114 -106.01368944 424.2248639 -127.90450048 424.22805947 C-140.19648561 424.23022476 -152.48838894 424.23897615 -164.78034973 424.26452065 C-175.24910414 424.28622587 -185.71775689 424.29427892 -196.18653125 424.28455386 C-201.52672783 424.2800086 -206.86671465 424.28190874 -212.20688248 424.30131531 C-217.09998866 424.3189434 -221.99273201 424.31795194 -226.88584203 424.30241802 C-228.65174296 424.30004142 -230.417669 424.30436816 -232.18353158 424.31624667 C-247.06815015 424.41013326 -259.61415491 422.31588604 -270.93969727 411.81103516 C-279.35537624 403.01853474 -282.9463358 393.24737447 -283.09594727 381.24853516 C-283.13945312 380.12608398 -283.13945312 380.12608398 -283.18383789 378.98095703 C-283.30302668 368.1897876 -278.27449347 359.29385295 -272.78344727 350.31103516 C-272.21021729 349.35745117 -271.6369873 348.40386719 -271.04638672 347.42138672 C-266.95688988 340.6500036 -262.76368723 333.94501462 -258.51367188 327.2734375 C-254.22251262 320.53605967 -250.02575702 313.74296983 -245.84594727 306.93603516 C-244.82476807 305.27326538 -244.82476807 305.27326538 -243.78295898 303.5769043 C-242.42826239 301.37095657 -241.07360685 299.16498362 -239.71899414 296.95898438 C-236.85413631 292.29961544 -233.97654229 287.64818649 -231.09594727 282.99853516 C-230.5692041 282.14815674 -230.04246094 281.29777832 -229.49975586 280.42163086 C-227.40695574 277.04365916 -225.31345051 273.66612471 -223.2199707 270.28857422 C-216.72384297 259.80664565 -210.24345272 249.31527159 -203.78344727 238.81103516 C-196.28700335 226.62150686 -188.75900053 214.45179348 -181.2199707 202.28857422 C-174.72384297 191.80664565 -168.24345272 181.31527159 -161.78344727 170.81103516 C-154.28700335 158.62150686 -146.75900053 146.45179348 -139.2199707 134.28857422 C-132.72384297 123.80664565 -126.24345272 113.31527159 -119.78344727 102.81103516 C-112.28700335 90.62150686 -104.75900053 78.45179348 -97.2199707 66.28857422 C-95.63663772 63.7337625 -94.05370018 61.17870628 -92.47094727 58.62353516 C-91.94509033 57.77484863 -91.4192334 56.92616211 -90.87744141 56.05175781 C-87.46556954 50.54101976 -84.06822702 45.02153573 -80.67900085 39.49684143 C-77.63962309 34.5434292 -74.58970965 29.59656512 -71.53540039 24.65234375 C-70.46274825 22.91272201 -69.39302139 21.17128698 -68.32836914 19.42675781 C-60.30107534 6.27363862 -51.78444584 -3.67297152 -36.29907227 -7.86083984 C-23.20719666 -9.56847579 -10.84130626 -8.00504664 0 0 Z " fill="#000000" transform="translate(282.783447265625,48.18896484375)"/>
<path d="M0 0 C0.74121094 -0.0309375 1.48242188 -0.061875 2.24609375 -0.09375 C9.27293521 1.70739655 13.02161871 10.6814581 16.5 16.375 C17.15677734 17.43783203 17.81355469 18.50066406 18.49023438 19.59570312 C23.46243301 27.65705298 28.38099901 35.75157953 33.29077148 43.85107422 C37.49048424 50.77067389 41.76063136 57.64351563 46.0625 64.5 C51.59259907 73.31515792 57.04063762 82.17602629 62.43798828 91.07299805 C66.7648799 98.20182919 71.13838551 105.30036681 75.53442383 112.38671875 C79.82937277 119.31126776 84.10590009 126.2469863 88.375 133.1875 C89.04644043 134.27909424 89.71788086 135.37068848 90.40966797 136.49536133 C91.77790332 138.72000824 93.14606704 140.94469921 94.51416016 143.16943359 C97.86243688 148.61367568 101.21254759 154.0567889 104.5625 159.5 C105.89584242 161.66666108 107.22917574 163.83332775 108.5625 166 C109.2225 167.0725 109.8825 168.145 110.5625 169.25 C133.89583333 207.16666667 157.22916667 245.08333333 180.5625 283 C181.22266113 284.0727417 181.88282227 285.1454834 182.56298828 286.25073242 C183.89476668 288.41491297 185.22647254 290.57913815 186.55810547 292.7434082 C189.91463255 298.19848297 193.27246186 303.65274836 196.6328125 309.10546875 C203.27752537 319.89007291 209.90859941 330.68270922 216.5 341.5 C217.3964624 342.9698938 217.3964624 342.9698938 218.31103516 344.46948242 C218.85679199 345.36642822 219.40254883 346.26337402 219.96484375 347.1875 C220.44429443 347.97511719 220.92374512 348.76273437 221.41772461 349.57421875 C223.54214964 353.14800093 223.96736729 355.28938013 223.5625 359.5 C221.42372742 363.47200622 219.7873454 365.88751877 215.5625 367.5 C212.94907767 367.75415033 212.94907767 367.75415033 209.91492558 367.76006222 C208.17809862 367.7706606 208.17809862 367.7706606 206.40618426 367.7814731 C204.49692137 367.77785047 204.49692137 367.77785047 202.54908752 367.77415466 C201.18388686 367.77860648 199.81868877 367.78392033 198.45349449 367.79002339 C194.69824414 367.80422029 190.94307649 367.80586636 187.18780315 367.80542648 C183.13932445 367.80707316 179.09087997 367.82013673 175.04241943 367.83161926 C166.18929764 367.8544781 157.3361998 367.86239052 148.48305249 367.86744571 C142.95717781 367.87070108 137.43131011 367.87722251 131.90543938 367.8844471 C116.61093272 367.90401258 101.31643255 367.92041762 86.02191257 367.92332363 C84.55359103 367.92360499 84.55359103 367.92360499 83.05560642 367.92389202 C81.07112308 367.92425828 79.08663975 367.92462198 77.10215641 367.92498314 C76.1170361 367.92516595 75.1319158 367.92534876 74.11694336 367.92553711 C72.63746346 367.92580793 72.63746346 367.92580793 71.12809508 367.92608423 C55.13671363 367.92962788 39.14546668 367.95666243 23.1541319 367.994035 C6.7428038 368.03208285 -9.6684575 368.05148084 -26.07983071 368.05178314 C-35.29704115 368.05236844 -44.51409108 368.06090686 -53.7312603 368.08978081 C-61.57765289 368.11424742 -69.42382641 368.12160952 -77.2702468 368.10653328 C-81.27500631 368.09934543 -85.27933282 368.10030181 -89.28404427 368.12294388 C-92.94885935 368.14346618 -96.61290668 368.14099804 -100.27771283 368.12006903 C-102.23431611 368.11489681 -104.1909363 368.13440525 -106.14744085 368.15473074 C-115.6143708 368.06345735 -115.6143708 368.06345735 -118.72361851 365.15298557 C-120.8274237 361.89642154 -121.16591824 360.30396191 -120.4375 356.5 C-118.37934137 353.87984397 -117.19175441 352.64665399 -113.88244462 352.00320601 C-112.42204023 352.00548434 -112.42204023 352.00548434 -110.93213272 352.00780869 C-109.80599855 351.99984449 -108.67986437 351.9918803 -107.51960492 351.98367476 C-106.28226188 351.99532613 -105.04491885 352.0069775 -103.77008057 352.01898193 C-102.45584256 352.01556423 -101.14160455 352.01214653 -99.78754115 352.00862527 C-96.13649745 351.99966827 -92.48592185 352.01569838 -88.83493781 352.03573751 C-84.89904772 352.05298794 -80.9631847 352.04716753 -77.02726746 352.04412842 C-70.2070107 352.04202952 -63.38690684 352.05459501 -56.56668854 352.07707977 C-46.70578591 352.10956787 -36.84495732 352.12000352 -26.98400697 352.12503174 C-10.98587808 352.13378941 5.01216929 352.16041777 21.01025391 352.19824219 C36.55224194 352.23495007 52.09420785 352.26326782 67.63623047 352.28027344 C69.0728925 352.28184978 69.0728925 352.28184978 70.538578 352.28345796 C75.3433822 352.28867806 80.14818655 352.2937329 84.95299101 352.29870558 C124.82288442 352.3401823 164.69268683 352.41064357 204.5625 352.5 C202.63489316 349.28374517 200.70666151 346.06786536 198.77832031 342.85205078 C198.23490997 341.94534134 197.69149963 341.0386319 197.13162231 340.10444641 C193.57023401 334.16615016 189.97775711 328.24985959 186.3125 322.375 C185.21972055 320.61609135 184.12728945 318.85696624 183.03515625 317.09765625 C182.47328613 316.19289551 181.91141602 315.28813477 181.33251953 314.35595703 C178.12610231 309.18234756 174.93853006 303.99714571 171.75 298.8125 C171.0787207 297.72114746 170.40744141 296.62979492 169.71582031 295.50537109 C168.34741301 293.28048569 166.97908656 291.05555056 165.61083984 288.83056641 C162.26256312 283.38632432 158.91245241 277.9432111 155.5625 272.5 C154.22915758 270.33333892 152.89582426 268.16667225 151.5625 266 C150.9025 264.9275 150.2425 263.855 149.5625 262.75 C63.5625 122.99999999 63.5625 122.99999999 61.56176758 119.7487793 C60.23091199 117.58615928 58.90002017 115.42356155 57.5690918 113.26098633 C54.19754875 107.78258992 50.82667261 102.30378508 47.45703125 96.82421875 C41.33804334 86.87502466 35.21500328 76.92851136 29.0625 67 C24.42469337 59.51500624 19.7972672 52.02366583 15.18017578 44.52587891 C14.1595434 42.86859106 13.13837482 41.21163346 12.1171875 39.5546875 C8.22327968 33.22807458 4.36818266 26.88008894 0.5625 20.5 C-2.08007763 22.9089851 -3.81262006 25.51850724 -5.66796875 28.56640625 C-6.29791748 29.59612549 -6.92786621 30.62584473 -7.5769043 31.68676758 C-8.25277588 32.80075928 -8.92864746 33.91475098 -9.625 35.0625 C-10.33784876 36.2303359 -11.05115393 37.39789331 -11.76489258 38.56518555 C-13.24999826 40.99484501 -14.73312332 43.42569656 -16.21484375 45.85742188 C-19.66728565 51.51993829 -23.147111 57.16558674 -26.625 62.8125 C-27.28951172 63.89241211 -27.95402344 64.97232422 -28.63867188 66.08496094 C-35.40402109 77.07782187 -42.20072918 88.05116862 -49.00097656 99.02246094 C-55.49710429 109.5043895 -61.97749454 119.99576356 -68.4375 130.5 C-75.93394392 142.6895283 -83.46194674 154.85924168 -91.00097656 167.02246094 C-97.49710429 177.5043895 -103.97749454 187.99576356 -110.4375 198.5 C-117.93394392 210.6895283 -125.46194674 222.85924168 -133.00097656 235.02246094 C-139.49710429 245.5043895 -145.97749454 255.99576356 -152.4375 266.5 C-159.93394392 278.6895283 -167.46194674 290.85924168 -175.00097656 303.02246094 C-181.70415003 313.83847139 -188.39222734 324.66367135 -195.0625 335.5 C-196.09370972 337.17485474 -196.09370972 337.17485474 -197.14575195 338.88354492 C-197.79116943 339.9326001 -198.43658691 340.98165527 -199.1015625 342.0625 C-199.67342285 342.99191406 -200.2452832 343.92132813 -200.83447266 344.87890625 C-202.38304083 347.41095436 -203.91198097 349.95402051 -205.4375 352.5 C-204.64458557 352.49111755 -203.85167114 352.48223511 -203.034729 352.4730835 C-195.56020816 352.39291665 -188.08589592 352.33202538 -180.61105728 352.29275131 C-176.76818748 352.27188116 -172.92567307 352.24357494 -169.08300781 352.19824219 C-165.37418885 352.15476255 -161.66571158 352.13085858 -157.95665741 352.12049103 C-156.54203665 352.11310333 -155.12743448 352.09867657 -153.71295929 352.07707977 C-151.73102577 352.04802385 -149.748748 352.04636592 -147.76660156 352.04589844 C-146.63853088 352.03701599 -145.51046021 352.02813354 -144.34820557 352.01898193 C-140.77092713 352.61015666 -139.60322995 353.64121061 -137.4375 356.5 C-136.9375 359.5 -136.9375 359.5 -137.4375 362.5 C-139.3045991 364.80275556 -140.79397741 366.17823871 -143.4375 367.5 C-145.71314397 367.61270713 -147.99214248 367.65940113 -150.27050781 367.67700195 C-150.97317276 367.68357315 -151.67583771 367.69014435 -152.39979553 367.69691467 C-154.73007308 367.71665808 -157.06028609 367.72831368 -159.390625 367.73828125 C-160.186679 367.74235678 -160.982733 367.7464323 -161.80290985 367.75063133 C-166.01785524 367.77149841 -170.23276802 367.78579627 -174.44775391 367.79516602 C-178.79682793 367.80622049 -183.1453889 367.840607 -187.49428177 367.88033772 C-190.84180639 367.90651534 -194.18920912 367.91485894 -197.53682709 367.91844749 C-199.13956917 367.92331201 -200.74230586 367.93492225 -202.34494781 367.95348549 C-204.5926798 367.97789835 -206.83908941 367.97690858 -209.08691406 367.9699707 C-211.00313568 367.97877007 -211.00313568 367.97877007 -212.95806885 367.98774719 C-217.06314647 367.41229678 -219.21814084 366.059055 -222.4375 363.5 C-224.81067378 360.26385393 -224.73038508 357.43505279 -224.4375 353.5 C-223.109375 350.51953125 -223.109375 350.51953125 -221.1875 347.3125 C-220.83107422 346.71211914 -220.47464844 346.11173828 -220.10742188 345.49316406 C-216.64787207 339.71846715 -213.0296538 334.03795801 -209.41601562 328.35888672 C-205.1094421 321.59046811 -200.88630731 314.7732296 -196.6875 307.9375 C-196.01485107 306.84252197 -195.34220215 305.74754395 -194.64916992 304.61938477 C-193.27085402 302.37469887 -191.89284532 300.12982431 -190.51513672 297.88476562 C-187.09730116 292.31662553 -183.67390336 286.75191039 -180.25 281.1875 C-179.58476318 280.10629883 -178.91952637 279.02509766 -178.23413086 277.91113281 C-171.46905251 266.9198575 -164.67348497 255.9475635 -157.87402344 244.97753906 C-151.37789571 234.4956105 -144.89750546 224.00423644 -138.4375 213.5 C-130.94105608 201.3104717 -123.41305326 189.14075832 -115.87402344 176.97753906 C-109.37789571 166.4956105 -102.89750546 156.00423644 -96.4375 145.5 C-88.94105608 133.3104717 -81.41305326 121.14075832 -73.87402344 108.97753906 C-67.37789571 98.4956105 -60.89750546 88.00423644 -54.4375 77.5 C-47.98367281 67.00580969 -41.50896276 56.52481873 -35.01855469 46.05322266 C-33.39821528 43.43655966 -31.78078523 40.81811768 -30.1640625 38.19921875 C-27.46761576 33.83177397 -24.76316694 29.4693663 -22.0546875 25.109375 C-20.95517701 23.33528561 -19.85894002 21.55916415 -18.765625 19.78125 C-17.14232468 17.1414906 -15.50957227 14.50779012 -13.875 11.875 C-13.38636475 11.07497559 -12.89772949 10.27495117 -12.39428711 9.45068359 C-6.55126668 0.09083212 -6.55126668 0.09083212 0 0 Z " fill="#030302" transform="translate(256.4375,72.5)"/>
<path d="M0 0 C3.63503845 1.24248747 4.95776763 3.06299399 6.8125 6.33984375 C7.32417725 7.22792725 7.83585449 8.11601074 8.36303711 9.03100586 C9.17333374 10.46972046 9.17333374 10.46972046 10 11.9375 C11.16557101 13.95971725 12.33358401 15.98052873 13.50390625 18 C14.38393311 19.52173828 14.38393311 19.52173828 15.28173828 21.07421875 C17.73842904 25.25736482 20.32271517 29.35192619 22.9375 33.4375 C27.35727512 40.36569714 31.67644457 47.34803742 35.9375 54.375 C40.38467612 61.70770199 44.8538424 69.02515375 49.375 76.3125 C54.20283783 84.09478554 59.01434579 91.88687323 63.8125 99.6875 C64.48394043 100.77909424 65.15538086 101.87068848 65.84716797 102.99536133 C67.21540332 105.22000824 68.58356704 107.44469921 69.95166016 109.66943359 C73.29993688 115.11367568 76.65004759 120.5567889 80 126 C81.33334242 128.16666108 82.66667574 130.33332775 84 132.5 C84.66 133.5725 85.32 134.645 86 135.75 C97 153.625 97 153.625 108 171.5 C108.66016113 172.5727417 109.32032227 173.6454834 110.00048828 174.75073242 C111.33226668 176.91491297 112.66397254 179.07913815 113.99560547 181.2434082 C117.35213255 186.69848297 120.70996186 192.15274836 124.0703125 197.60546875 C127.39240566 202.99669671 130.70986713 208.39075072 134.02441406 213.78662109 C135.36850023 215.97283738 136.7142678 218.15802063 138.06152344 220.34228516 C140.045167 223.55899172 142.02317531 226.77909973 144 230 C144.60602051 230.9799292 145.21204102 231.9598584 145.83642578 232.96948242 C146.65989502 234.31490112 146.65989502 234.31490112 147.5 235.6875 C147.9846875 236.47511719 148.469375 237.26273438 148.96875 238.07421875 C150 240 150 240 150 242 C100.5 242 51 242 0 242 C4.49943869 235.25084196 4.49943869 235.25084196 6.99609375 233.17578125 C7.82512207 232.47678711 7.82512207 232.47678711 8.67089844 231.76367188 C9.25387695 231.28478516 9.83685547 230.80589844 10.4375 230.3125 C11.34870605 229.54583008 11.34870605 229.54583008 12.27832031 228.76367188 C14.80317963 226.64200715 17.34428842 224.54046633 19.88916016 222.44287109 C21.10393075 221.44109434 22.31680376 220.43701123 23.52758789 219.43041992 C24.65017861 218.49813657 25.77805602 217.57217145 26.91186523 216.65356445 C29.67938951 214.3577424 31.85077185 212.46187246 33 209 C32.85713475 204.99977313 32.61728563 202.75667271 30.0625 199.625 C26.22502208 196.60153255 22.8650417 196.78796344 18.1484375 196.68359375 C17.37440582 196.66281265 16.60037415 196.64203156 15.80288696 196.62062073 C13.32701608 196.55516552 10.85103798 196.49625913 8.375 196.4375 C6.69790552 196.39431093 5.02082193 196.35069652 3.34375 196.30664062 C-0.77072308 196.19948829 -4.88530414 196.09820955 -9 196 C-8.32318076 190.40549585 -6.5149506 185.40130105 -4.61328125 180.1328125 C-4.27378952 179.18042694 -3.93429779 178.22804138 -3.58451843 177.24679565 C-2.49854541 174.20449326 -1.40548265 171.16479013 -0.3125 168.125 C0.40342853 166.11994649 1.11892738 164.11473949 1.83398438 162.109375 C7.3850199 146.57569442 7.3850199 146.57569442 9.83374023 140.171875 C10.11300858 139.44056366 10.39227692 138.70925232 10.68000793 137.95578003 C11.41817496 136.03476125 12.16501712 134.11708207 12.91259766 132.19970703 C14.44303263 127.69636604 14.85949719 124.68816647 14 120 C11.75988227 117.28470579 9.92139927 116.14691896 6.43383789 115.59082031 C3.34726946 115.38159603 0.28079803 115.29157151 -2.8125 115.25 C-3.88693359 115.22035156 -4.96136719 115.19070313 -6.06835938 115.16015625 C-8.71231427 115.08965079 -11.3553973 115.03685857 -14 115 C-13.38874838 108.56642236 -11.39980782 102.84643159 -9.25390625 96.7734375 C-8.88273178 95.7075943 -8.51155731 94.6417511 -8.12913513 93.54360962 C-6.94622499 90.15195351 -5.75435627 86.76352129 -4.5625 83.375 C-3.76441301 81.08873741 -2.96688104 78.80228098 -2.16992188 76.515625 C-0.70707099 72.32748259 0.75629735 68.13953542 2.22827148 63.95458984 C2.52281723 63.1163266 2.81736298 62.27806335 3.12083435 61.41439819 C3.74072379 59.7120342 4.40351772 58.02499551 5.09632874 56.35098267 C6.11421995 53.70284646 6.23503104 51.70093609 6.1875 48.875 C6.18105469 48.02679688 6.17460937 47.17859375 6.16796875 46.3046875 C6.08347963 43.83971753 6.08347963 43.83971753 5 41 C-0.5603128 38.24792599 -6.80097176 38.55452793 -12.875 38.375 C-13.94492187 38.33632812 -15.01484375 38.29765625 -16.1171875 38.2578125 C-18.74462408 38.16397548 -21.37206171 38.07828443 -24 38 C-20.92096954 31.5558678 -17.35751203 25.54599631 -13.5625 19.5 C-13.00240234 18.60152344 -12.44230469 17.70304687 -11.86523438 16.77734375 C-10.76608522 15.01511394 -9.66412103 13.25463621 -8.55908203 11.49609375 C-7.54357725 9.87026837 -6.53875147 8.23770817 -5.54638672 6.59765625 C-5.10697754 5.87449219 -4.66756836 5.15132812 -4.21484375 4.40625 C-3.83320068 3.77009766 -3.45155762 3.13394531 -3.05834961 2.47851562 C-2 1 -2 1 0 0 Z " fill="#F9E68B" transform="translate(288,146)"/>
<path d="M0 0 C1.84233719 -0.00956978 1.84233719 -0.00956978 3.72189331 -0.01933289 C5.06866415 -0.02086167 6.41543552 -0.02197557 7.76220703 -0.02270508 C9.13982173 -0.02591771 10.51743608 -0.02928178 11.89505005 -0.03279114 C14.78518464 -0.03878383 17.67528932 -0.04063093 20.56542969 -0.04003906 C24.26660895 -0.03993752 27.96759604 -0.05358122 31.66872978 -0.07081127 C34.51519652 -0.08193789 37.36161692 -0.08395806 40.20810318 -0.08342934 C41.57243639 -0.08460878 42.93677081 -0.0890286 44.30108261 -0.0967617 C46.21111323 -0.10657286 48.12120011 -0.10241638 50.03125 -0.09765625 C51.11775848 -0.09908127 52.20426697 -0.10050629 53.32369995 -0.10197449 C56.18183428 0.14848983 57.77940358 0.5540824 60.14501953 2.14526367 C63.04217331 6.49099435 62.72891272 10.03933452 62.14501953 15.14526367 C60.99288403 19.69165522 59.42111019 24.04998303 57.80517578 28.44995117 C57.13061332 30.34667105 56.45605143 32.24339113 55.7815237 34.14012337 C54.84135076 36.77086751 53.88650086 39.39619234 52.93206787 42.02178955 C51.48973019 46.0000949 50.06899012 49.98615241 48.64530849 53.9711628 C47.53824104 57.06880782 46.42687927 60.1647567 45.30763245 63.25802612 C44.90729294 64.36662994 44.50695343 65.47523376 44.09448242 66.61743164 C43.74140518 67.59098602 43.38832794 68.56454041 43.02455139 69.56759644 C42.27956045 71.75096104 41.65861447 73.89819517 41.14501953 76.14526367 C41.81033691 76.11907959 42.4756543 76.09289551 43.16113281 76.06591797 C46.19718488 75.96150907 49.23285864 75.8968002 52.27001953 75.83276367 C53.31673828 75.79086914 54.36345703 75.74897461 55.44189453 75.70581055 C64.18767152 75.567428 64.18767152 75.567428 67.88720703 78.10229492 C70.95133318 82.23197358 70.71950432 85.14289384 70.14501953 90.14526367 C69.24646361 93.73522388 67.98832569 97.14638564 66.67236328 100.60229492 C66.13126671 102.07686409 66.13126671 102.07686409 65.57923889 103.58122253 C64.42721626 106.71194534 63.25557123 109.83486733 62.08251953 112.95776367 C61.32138289 115.01129249 60.56160599 117.06532582 59.80322266 119.11987305 C58.68022508 122.16177556 57.55628912 125.20327987 56.42660522 128.2427063 C52.86742687 137.83132591 49.48312948 147.47780262 46.14501953 157.14526367 C47.17385254 157.12431641 48.20268555 157.10336914 49.26269531 157.08178711 C53.09800166 157.00911373 56.93324775 156.96336546 60.76904297 156.92553711 C62.42572278 156.90548359 64.08233235 156.87823338 65.73876953 156.84350586 C68.12696711 156.79470855 70.51422501 156.77223304 72.90283203 156.75463867 C74.00475388 156.72367096 74.00475388 156.72367096 75.12893677 156.69207764 C80.29488736 156.68984885 83.15835513 157.91087143 87.14501953 161.14526367 C89.2368046 163.7827318 89.14580184 165.10301888 89.08251953 168.52026367 C87.13058105 176.06775915 81.21190521 179.85425513 75.35986328 184.53588867 C71.77239416 187.4201736 68.30227564 190.43368482 64.83251953 193.45776367 C63.54997885 194.5736622 62.26742671 195.68954754 60.98486328 196.80541992 C60.34790527 197.35987793 59.71094727 197.91433594 59.0546875 198.4855957 C26.54781685 226.73690057 26.54781685 226.73690057 17.30126953 226.53588867 C13.05786442 225.76715586 10.31220967 222.91588517 7.14501953 220.14526367 C5.65057138 218.8962027 4.15610689 217.64716124 2.66137695 216.3984375 C-0.194386 214.0005821 -3.02410607 211.57240334 -5.85498047 209.14526367 C-6.43086914 208.651875 -7.00675781 208.15848633 -7.60009766 207.65014648 C-9.94111466 205.64412129 -12.28159418 203.63747375 -14.62084961 201.62939453 C-18.54074499 198.26583635 -22.47373312 194.91831291 -26.41748047 191.58276367 C-27.20517822 190.91446533 -27.20517822 190.91446533 -28.00878906 190.23266602 C-30.8059829 187.86264253 -33.61816283 185.51358328 -36.45263672 183.18823242 C-37.04294678 182.6997583 -37.63325684 182.21128418 -38.24145508 181.70800781 C-39.36614454 180.77790021 -40.49558449 179.85349456 -41.63061523 178.93603516 C-45.73153701 175.52994318 -48.510399 172.50810806 -49.29248047 167.14526367 C-48.74224179 163.37219845 -47.5309731 161.8212563 -44.85498047 159.14526367 C-40.94707482 156.39333628 -36.52712338 156.79494985 -31.93310547 156.73120117 C-31.07311951 156.71183502 -30.21313354 156.69246887 -29.3270874 156.67251587 C-26.58648526 156.61284553 -23.84584083 156.56638507 -21.10498047 156.52026367 C-19.2442853 156.48207233 -17.38360759 156.44301992 -15.52294922 156.40307617 C-10.96710183 156.30715432 -6.41117168 156.22307699 -1.85498047 156.14526367 C-1.59281738 155.37859375 -1.3306543 154.61192383 -1.06054688 153.82202148 C0.13008552 150.34543808 1.325003 146.87034241 2.52001953 143.39526367 C2.93251953 142.18870117 3.34501953 140.98213867 3.77001953 139.73901367 C4.16962891 138.57885742 4.56923828 137.41870117 4.98095703 136.22338867 C5.34753418 135.15507812 5.71411133 134.08676758 6.09179688 132.98608398 C6.97913319 130.59270305 7.9836913 128.41086098 9.14501953 126.14526367 C8.49435516 126.15636673 7.8436908 126.16746979 7.17330933 126.1789093 C0.39253485 126.28964827 -6.38798217 126.36499177 -13.16943359 126.41992188 C-15.69916215 126.44504412 -18.22881829 126.47914788 -20.75830078 126.52246094 C-24.3974801 126.58320922 -28.03569859 126.61149752 -31.67529297 126.63354492 C-32.80363556 126.65935135 -33.93197815 126.68515778 -35.09451294 126.71174622 C-43.88217521 126.71487516 -43.88217521 126.71487516 -47.55371094 124.17724609 C-50.61903992 120.13859549 -51.22381771 117.16171479 -50.85498047 112.14526367 C-50.13330062 108.77226815 -48.99421576 105.64743598 -47.74169922 102.43823242 C-47.41208694 101.5504158 -47.08247467 100.66259918 -46.74287415 99.74787903 C-45.69375351 96.93582591 -44.61842165 94.1346486 -43.54248047 91.33276367 C-42.83049736 89.43300805 -42.12019429 87.53262189 -41.41162109 85.6315918 C-40.10928241 82.15730304 -38.80285075 78.68478641 -37.47485352 75.22021484 C-37.20980515 74.52788254 -36.94475677 73.83555023 -36.67167664 73.12223816 C-34.33467285 67.46505859 -34.33467285 67.46505859 -30.85498047 65.14526367 C-28.88232422 65.06323242 -28.88232422 65.06323242 -26.79248047 65.33276367 C-26.10025391 65.40881836 -25.40802734 65.48487305 -24.69482422 65.56323242 C-22.85498047 66.14526367 -22.85498047 66.14526367 -20.85498047 69.14526367 C-20.36641636 74.59181793 -21.52531554 78.94863314 -23.44482422 83.97729492 C-23.70880508 84.69511642 -23.97278595 85.41293793 -24.24476624 86.1525116 C-25.08347267 88.42499921 -25.93780308 90.69124122 -26.79248047 92.95776367 C-27.36315425 94.4984047 -27.93282569 96.03941739 -28.50146484 97.58081055 C-32.58269028 108.6006833 -32.58269028 108.6006833 -33.85498047 111.14526367 C-33.16451126 111.13416061 -32.47404205 111.12305756 -31.76264954 111.11161804 C-24.57651707 111.0010042 -17.39062641 110.92558718 -10.20385742 110.87060547 C-7.52159593 110.84828373 -4.83992626 110.81349573 -2.15795898 110.76806641 C1.69711208 110.70741843 5.55127723 110.6790524 9.40673828 110.65698242 C11.2054261 110.61827278 11.2054261 110.61827278 13.04045105 110.57878113 C21.20346127 110.57603055 21.20346127 110.57603055 25.50366211 113.17578125 C27.71171574 117.17050924 27.29423509 119.91734688 26.14501953 124.14526367 C25.10389866 127.69943336 23.9048193 131.17984955 22.65283203 134.66479492 C22.30622528 135.64518234 21.95961853 136.62556976 21.60250854 137.63566589 C20.87185486 139.6952333 20.13709175 141.75334699 19.3984375 143.81005859 C18.26882566 146.96109397 17.15733504 150.11812342 16.04736328 153.27612305 C15.33359655 155.28106409 14.61878891 157.28563493 13.90283203 159.28979492 C13.57147247 160.2335347 13.24011292 161.17727448 12.89871216 162.14961243 C12.58183441 163.02449814 12.26495667 163.89938385 11.93847656 164.80078125 C11.5266362 165.95372429 11.5266362 165.95372429 11.10647583 167.12995911 C10.04920813 169.34609355 9.07499007 170.63094354 7.14501953 172.14526367 C4.62774234 172.40679653 2.36397987 172.49505587 -0.14794922 172.43823242 C-1.20699211 172.43186516 -1.20699211 172.43186516 -2.28742981 172.42536926 C-4.5395035 172.40859401 -6.79067789 172.3709461 -9.04248047 172.33276367 C-10.57046232 172.31771524 -12.09845822 172.30402711 -13.62646484 172.29174805 C-17.36964919 172.25869456 -21.11216243 172.20692199 -24.85498047 172.14526367 C-24.85498047 172.80526367 -24.85498047 173.46526367 -24.85498047 174.14526367 C-24.31615234 174.3747168 -23.77732422 174.60416992 -23.22216797 174.84057617 C-20.14914017 176.53429116 -17.61807847 178.73359259 -14.97998047 181.02026367 C-14.41553223 181.50350098 -13.85108398 181.98673828 -13.26953125 182.48461914 C-11.46117652 184.03413972 -9.65776976 185.58927334 -7.85498047 187.14526367 C2.15612929 195.76837212 2.15612929 195.76837212 12.27001953 204.27026367 C13.54232422 205.32600586 13.54232422 205.32600586 14.84033203 206.40307617 C16.88997158 207.95246472 18.8070942 209.10020028 21.14501953 210.14526367 C22.1446875 209.21907227 22.1446875 209.21907227 23.16455078 208.27416992 C28.67837061 203.20762499 34.2808511 198.34650251 40.10986328 193.64135742 C44.42552222 190.09218617 48.63366949 186.42336739 52.84326172 182.74951172 C53.44428711 182.22526611 54.0453125 181.70102051 54.66455078 181.16088867 C55.19153564 180.69972656 55.71852051 180.23856445 56.26147461 179.76342773 C58.86449622 177.5271572 61.50535095 175.33815497 64.14501953 173.14526367 C63.16106201 173.13068115 62.17710449 173.11609863 61.16333008 173.10107422 C57.51208179 173.04309369 53.86145042 172.96586182 50.21069336 172.8828125 C48.6307171 172.84956179 47.05062202 172.82153021 45.47045898 172.79882812 C43.19870374 172.76528351 40.9280375 172.7129714 38.65673828 172.65698242 C37.95038742 172.6505925 37.24403656 172.64420258 36.51628113 172.63761902 C33.78698444 172.55582106 31.63309349 172.42538601 29.23803711 171.05078125 C26.97022506 167.09717995 26.71513647 163.91498181 27.77056885 159.57003784 C28.77471744 156.46500276 29.88110495 153.4153712 31.02783203 150.36010742 C31.43911346 149.2268251 31.8503949 148.09354279 32.2741394 146.92591858 C33.59155369 143.30602265 34.93030267 139.6944572 36.27001953 136.08276367 C37.1490624 133.6802948 38.02668143 131.27730445 38.90283203 128.8737793 C40.57452794 124.29303533 42.2547618 119.71558857 43.94287109 115.14086914 C46.08420597 109.32963073 48.16601205 103.50001833 50.203125 97.65136719 C51.05365584 95.38835551 52.01498893 93.28008139 53.14501953 91.14526367 C52.34805664 91.17144775 51.55109375 91.19763184 50.72998047 91.22460938 C47.1185274 91.32855312 43.50738881 91.39358452 39.89501953 91.45776367 C38.64076172 91.4996582 37.38650391 91.54155273 36.09423828 91.5847168 C34.28632813 91.60888672 34.28632813 91.60888672 32.44189453 91.63354492 C30.77658691 91.67282104 30.77658691 91.67282104 29.07763672 91.71289062 C26.14501953 91.14526367 26.14501953 91.14526367 23.68896484 89.11474609 C21.17749957 84.28442476 22.46231305 80.46580011 23.92129517 75.50668335 C24.91026486 72.44350722 25.9648921 69.40988928 27.03955078 66.37573242 C27.42817795 65.25894608 27.81680511 64.14215973 28.21720886 62.99153137 C29.45656733 59.43596885 30.70693917 55.88439262 31.95751953 52.33276367 C32.78700722 49.95736102 33.61579025 47.58171217 34.44384766 45.20581055 C35.97650392 40.81589638 37.51147877 36.42682991 39.05444336 32.04052734 C39.36231277 31.1653093 39.67018219 30.29009125 39.98738098 29.38835144 C41.68488411 24.63285015 43.41942654 19.8906444 45.14501953 15.14526367 C30.62501953 15.47526367 16.10501953 15.80526367 1.14501953 16.14526367 C-2.30739395 25.83372265 -2.30739395 25.83372265 -5.73486328 35.53100586 C-6.38986816 37.3432666 -6.38986816 37.3432666 -7.05810547 39.19213867 C-7.49799805 40.42802734 -7.93789062 41.66391602 -8.39111328 42.93725586 C-9.86132385 46.15916494 -11.0489455 48.00561183 -13.85498047 50.14526367 C-17.2992026 50.08483872 -19.75915554 49.74619992 -22.79248047 48.08276367 C-25.11989601 43.83865297 -24.04203093 38.82391548 -22.81689453 34.37890625 C-22.3487281 33.09404095 -21.86605692 31.8143876 -21.37060547 30.53979492 C-21.11373962 29.85269943 -20.85687378 29.16560394 -20.59222412 28.45768738 C-20.05040007 27.01757016 -19.50215259 25.57985456 -18.94775391 24.14453125 C-18.10538266 21.95880724 -17.28746232 19.76503956 -16.47216797 17.5690918 C-15.93973913 16.16295232 -15.40593134 14.75733404 -14.87060547 13.35229492 C-14.62876526 12.70323685 -14.38692505 12.05417877 -14.13775635 11.38545227 C-11.09260839 3.58732501 -8.37867856 0.02943803 0 0 Z " fill="#040302" transform="translate(232.85498046875,184.854736328125)"/>
<path d="M0 0 C0.77943466 0.00222061 1.55886932 0.00444122 2.36192322 0.00672913 C3.24276077 0.00680466 4.12359833 0.00688019 5.03112793 0.00695801 C5.98841293 0.01211929 6.94569794 0.01728058 7.93199158 0.02259827 C9.39480812 0.02472069 9.39480812 0.02472069 10.88717651 0.02688599 C14.01542675 0.03250319 17.14360656 0.04505859 20.27183533 0.05775452 C22.38706867 0.0627673 24.50230313 0.06733059 26.61753845 0.07142639 C31.81482829 0.0824782 37.01207678 0.09923305 42.20933533 0.12025452 C40.8878904 6.59334296 39.11892749 12.6925299 36.90855408 18.91322327 C36.59030167 19.82171524 36.27204926 20.73020721 35.94415283 21.66622925 C34.93317098 24.54844756 33.91510389 27.4281036 32.89683533 30.30775452 C32.22514903 32.21970153 31.5539214 34.13180974 30.88316345 36.04408264 C30.55518768 36.9772934 30.22721191 37.91050415 29.88929749 38.87199402 C29.23934817 40.72177199 28.59047017 42.57192675 27.94270325 44.42247009 C26.53772806 48.42147651 25.11522646 52.40642852 23.57896423 56.35707092 C23.11280701 57.57442932 22.64664978 58.79178772 22.16636658 60.04603577 C21.556922 61.57804626 21.556922 61.57804626 20.93516541 63.14100647 C20.04281544 66.80375341 20.36753994 69.46459098 21.20933533 73.12025452 C23.92597325 75.83689244 25.51128185 75.42778573 29.31089783 75.53431702 C30.52261658 75.57298889 31.73433533 75.61166077 32.98277283 75.65150452 C34.25378845 75.68244202 35.52480408 75.71337952 36.83433533 75.74525452 C38.11308533 75.78392639 39.39183533 75.82259827 40.70933533 75.86244202 C43.8758555 75.95696501 47.04236572 76.04251808 50.20933533 76.12025452 C49.54569346 78.93558935 48.72416585 81.63178637 47.75401306 84.35609436 C47.31236061 85.60052811 47.31236061 85.60052811 46.86178589 86.87010193 C46.54206314 87.76476166 46.22234039 88.65942139 45.89292908 89.58119202 C45.55818069 90.52217743 45.22343231 91.46316284 44.87854004 92.43266296 C44.16571174 94.43528601 43.45197728 96.43758671 42.7374115 98.43959045 C41.67334166 101.42098693 40.61196419 104.40332965 39.5511322 107.38587952 C39.03252121 108.84105988 39.03252121 108.84105988 38.50343323 110.32563782 C37.80355998 112.29105455 37.10562895 114.25716396 36.40962219 116.22395325 C34.62736816 121.239983 32.79428027 126.22723111 30.86216736 131.18763733 C30.48608841 132.16971161 30.11000946 133.15178589 29.72253418 134.16362 C29.00995384 136.01812883 28.28238207 137.86697794 27.53683472 139.70848083 C27.21614517 140.550289 26.89545563 141.39209717 26.56504822 142.25941467 C26.2783577 142.98359589 25.99166718 143.7077771 25.69628906 144.4539032 C24.88830378 148.15594983 24.88830378 148.15594983 26.20933533 156.12025452 C44.02933533 156.61525452 44.02933533 156.61525452 62.20933533 157.12025452 C58.75154052 161.26960829 56.33052961 164.05583374 52.27183533 167.24525452 C47.88800307 170.75232032 43.58730244 174.33067047 39.33433533 177.99525452 C38.75063171 178.49524963 38.1669281 178.99524475 37.5655365 179.51039124 C34.54786737 182.09672801 31.54757632 184.70023449 28.56871033 187.33119202 C27.40730064 188.34426862 26.24584411 189.35729153 25.08433533 190.37025452 C24.55211365 190.84833557 24.01989197 191.32641663 23.47154236 191.81898499 C20.35714563 194.51719506 19.51281874 195.12025452 15.20933533 195.12025452 C13.01792908 193.46791077 13.01792908 193.46791077 10.64683533 191.18275452 C7.19246856 187.94491511 3.71109696 184.8381829 0.02183533 181.87025452 C-5.23790972 177.62056009 -10.33681538 173.20447741 -15.40077209 168.7247467 C-18.41577196 166.08067998 -21.43556457 163.62550162 -24.74378967 161.35462952 C-25.74925842 160.61728577 -26.75472717 159.87994202 -27.79066467 159.12025452 C-27.79066467 158.46025452 -27.79066467 157.80025452 -27.79066467 157.12025452 C-26.83700012 157.11090881 -25.88333557 157.10156311 -24.90077209 157.0919342 C-21.36123505 157.05205019 -17.82256874 156.98629793 -14.28358459 156.91273499 C-12.75212289 156.88451574 -11.22051529 156.86330583 -9.68885803 156.84925842 C-7.48635618 156.82784025 -5.28561008 156.78120313 -3.08363342 156.72962952 C-2.0569178 156.72778656 -2.0569178 156.72778656 -1.00946045 156.72590637 C1.16565615 156.70226594 1.16565615 156.70226594 4.20933533 156.12025452 C6.59120271 153.50187962 7.85447679 150.86516497 9.03453064 147.55458069 C9.35786377 146.65652206 9.6811969 145.75846344 10.014328 144.83319092 C10.35196167 143.86960159 10.68959534 142.90601227 11.03746033 141.91322327 C11.56735565 140.41508842 11.56735565 140.41508842 12.10795593 138.88668823 C12.85129879 136.77569956 13.5907311 134.66333036 14.32652283 132.54969788 C15.45352277 129.32438921 16.60422377 126.10819367 17.75621033 122.89173889 C18.47643335 120.83691606 19.19523088 118.78159291 19.91246033 116.72572327 C20.25819092 115.76820663 20.60392151 114.81069 20.96012878 113.82415771 C22.7885255 108.48406477 23.86551705 104.61054217 22.20933533 99.12025452 C18.84839411 96.87962704 17.66534974 96.85449291 13.72813416 96.80140686 C12.60719864 96.78153717 11.48626312 96.76166748 10.33135986 96.74119568 C9.12191208 96.72964447 7.91246429 96.71809326 6.66636658 96.70619202 C5.4276329 96.68682587 4.18889923 96.66745972 2.91262817 96.64750671 C-0.37691642 96.59782045 -3.66642593 96.55656169 -6.95613098 96.5193634 C-10.31448992 96.47932139 -13.67267873 96.42823 -17.03089905 96.37806702 C-23.61737825 96.28193299 -30.2039315 96.19690604 -36.79066467 96.12025452 C-35.19056337 90.65589819 -33.5535441 85.24638353 -31.52894592 79.92103577 C-31.1325592 78.85691467 -30.73617249 77.79279358 -30.32777405 76.69642639 C-29.5060635 74.5065088 -28.67784919 72.31902141 -27.84339905 70.13392639 C-24.94982314 62.32068224 -24.94982314 62.32068224 -24.79066467 54.12025452 C-25.74931976 51.78949522 -25.74931976 51.78949522 -28.79066467 50.12025452 C-26.81066467 44.84025452 -24.83066467 39.56025452 -22.79066467 34.12025452 C-20.81066467 34.12025452 -18.83066467 34.12025452 -16.79066467 34.12025452 C-13.24921352 30.78207494 -11.80846292 27.08732962 -10.24769592 22.54212952 C-9.81392639 21.29947327 -9.38015686 20.05681702 -8.9332428 18.77650452 C-8.48939285 17.47458833 -8.04603914 16.17250286 -7.60316467 14.87025452 C-6.71803314 12.30106787 -5.82693019 9.73404076 -4.93519592 7.16712952 C-4.54694641 6.03114319 -4.1586969 4.89515686 -3.75868225 3.7247467 C-2.43507702 0.1635309 -2.43507702 0.1635309 0 0 Z " fill="#A39AA3" transform="translate(235.79066467285156,199.87974548339844)"/>
<path d="M0 0 C3.21508698 2.97407729 5.40936049 6.02339811 7.65234375 9.77734375 C7.98860779 10.33598114 8.32487183 10.89461853 8.67132568 11.47018433 C9.3911203 12.66737098 10.10830424 13.86613052 10.8230896 15.0663147 C12.33704697 17.60837172 13.86346944 20.14286079 15.38923645 22.67784119 C16.1615204 23.96119434 16.93315668 25.24493747 17.70414734 26.52906799 C20.98313218 31.98741648 24.32232406 37.40686733 27.6875 42.8125 C32.16528844 50.01753558 36.59701089 57.2490145 41 64.5 C45.95186676 72.65297033 50.94299871 80.78004464 55.97143555 88.88598633 C60.26660401 95.8107445 64.54321814 102.74675388 68.8125 109.6875 C69.81639771 111.31945312 69.81639771 111.31945312 70.84057617 112.984375 C73.58124422 117.44021307 76.32137095 121.89638393 79.06152344 126.35253906 C86.37849274 138.25086966 93.70138526 150.14528861 101.06054688 162.01757812 C104.75151702 167.97501329 108.42713539 173.94175434 112.09716797 179.91210938 C115.39495093 185.27668787 118.69618133 190.6391367 122 196 C122.81670166 197.32523682 122.81670166 197.32523682 123.64990234 198.67724609 C125.05493339 200.9535862 126.46393446 203.22739717 127.875 205.5 C128.27356201 206.14622314 128.67212402 206.79244629 129.08276367 207.45825195 C130.58635776 209.87143179 131.98169503 211.98169503 134 214 C135.216875 213.835 136.43375 213.67 137.6875 213.5 C139.828125 213.42578125 139.828125 213.42578125 142 214 C146.12571348 218.11783998 149.52544732 223.07313993 150 229 C149.34 229.66 148.68 230.32 148 231 C147.3832574 236.68327438 148.58458727 239.81059468 151.578125 244.59765625 C152.1298941 245.49368813 152.1298941 245.49368813 152.69281006 246.40782166 C153.8641759 248.30210551 155.05657866 250.18205241 156.25 252.0625 C157.03656247 253.32790303 157.82173218 254.59417291 158.60546875 255.86132812 C161.41460583 260.38591483 164.236869 264.89121458 167.25683594 269.27905273 C169 272 169 272 169 274 C162.29324471 275.39667842 155.55425858 276.54396427 149 274 C143.19830517 268.72817094 140.01644302 261.06293999 136.59716797 254.13769531 C134.22140212 249.47041579 131.43875129 245.099407 128.625 240.6875 C127.54835505 238.9572365 126.47418428 237.22543128 125.40234375 235.4921875 C124.85304199 234.6062793 124.30374023 233.72037109 123.73779297 232.80761719 C120.54458569 227.64860009 117.36627771 222.48041612 114.1875 217.3125 C113.51605957 216.22090576 112.84461914 215.12931152 112.15283203 214.00463867 C110.78459668 211.77999176 109.41643296 209.55530079 108.04833984 207.33056641 C104.70006312 201.88632432 101.34995241 196.4432111 98 191 C96.66665758 188.83333892 95.33332426 186.66667225 94 184.5 C93.34 183.4275 92.68 182.355 92 181.25 C68.66666667 143.33333333 45.33333333 105.41666667 22 67.5 C21.33895264 66.42580811 20.67790527 65.35161621 19.99682617 64.24487305 C18.67403588 62.09531861 17.35128151 59.94574208 16.02856445 57.79614258 C12.90861948 52.725895 9.78831205 47.65587156 6.66671753 42.5866394 C5.19457975 40.19594969 3.72264817 37.80513306 2.25073242 35.41430664 C1.21357993 33.72985668 0.17612974 32.04559003 -0.86132812 30.36132812 C-1.49103516 29.33845703 -2.12074219 28.31558594 -2.76953125 27.26171875 C-3.32229736 26.36412842 -3.87506348 25.46653809 -4.44458008 24.54174805 C-5.21451294 23.28358276 -5.21451294 23.28358276 -6 22 C-6.56356201 21.11707275 -7.12712402 20.23414551 -7.70776367 19.32446289 C-9 17 -9 17 -8.90625 14.546875 C-7.80765724 11.45945053 -6.30353596 8.98487011 -4.5 6.25 C-3.55640625 4.80367188 -3.55640625 4.80367188 -2.59375 3.328125 C-1 1 -1 1 0 0 Z " fill="#A299A3" transform="translate(307,114)"/>
<path d="M0 0 C1.18880264 0.07348663 2.37760529 0.14697327 3.60243225 0.22268677 C4.83550613 0.25903229 6.06858002 0.29537781 7.33901978 0.33282471 C11.26487433 0.45946668 15.18355504 0.6564391 19.1063385 0.85549927 C21.77208333 0.95962424 24.4380591 1.04770258 27.10438538 1.13674927 C33.62882971 1.36469577 40.1488081 1.65038447 46.6688385 1.98049927 C46.47303192 2.56710327 46.27722534 3.15370728 46.07548523 3.75808716 C44.66859212 7.97536336 43.26611374 12.19391137 41.879776 16.41799927 C41.26782002 18.27217359 40.65584066 20.12634019 40.0438385 21.98049927 C39.57590881 23.40942505 39.57590881 23.40942505 39.098526 24.86721802 C38.7994635 25.77085083 38.500401 26.67448364 38.192276 27.60549927 C37.92334534 28.42276489 37.65441467 29.24003052 37.37733459 30.08206177 C36.6688385 31.98049927 36.6688385 31.98049927 35.6688385 32.98049927 C32.84468011 33.10373666 30.0412184 33.16664804 27.2157135 33.19143677 C25.46440223 33.21951552 23.71310028 33.24818005 21.96180725 33.27737427 C19.19244241 33.31858359 16.4232495 33.35545721 13.65370178 33.38186646 C10.98650321 33.40952559 8.32010322 33.45540965 5.6532135 33.50393677 C4.41701263 33.50881607 4.41701263 33.50881607 3.15583801 33.51379395 C-1.47571741 33.61251772 -4.58217729 33.96871475 -8.3311615 36.98049927 C-10.74543399 40.601908 -10.89182064 42.24165589 -10.31163025 46.45315552 C-8.16270868 51.99240753 -2.84991819 55.3780144 1.6688385 58.98049927 C2.58922913 59.74491333 3.50961975 60.50932739 4.457901 61.29690552 C8.20442397 64.40101316 11.99617375 67.4463106 15.80555725 70.47268677 C16.81231506 71.27963989 17.81907288 72.08659302 18.8563385 72.91799927 C19.77801819 73.64889771 20.69969788 74.37979614 21.64930725 75.13284302 C22.31575256 75.74256958 22.98219788 76.35229614 23.6688385 76.98049927 C23.6688385 77.64049927 23.6688385 78.30049927 23.6688385 78.98049927 C19.54408369 79.09801365 15.41976732 79.16818751 11.2938385 79.23049927 C10.13754944 79.26401489 8.98126038 79.29753052 7.78993225 79.33206177 C-4.04484703 79.46578809 -11.5774649 76.52052679 -20.13194275 68.35549927 C-23.08857321 65.16254843 -25.42427729 61.8896119 -27.3311615 57.98049927 C-27.69596619 57.24960083 -28.06077087 56.51870239 -28.43663025 55.76565552 C-29.62632005 52.06151216 -29.66058786 48.51705477 -29.6436615 44.66799927 C-29.65977478 43.9467688 -29.67588806 43.22553833 -29.69248962 42.48245239 C-29.70039353 33.66959417 -26.03332091 27.0075557 -21.5811615 19.60549927 C-21.17639587 18.91456177 -20.77163025 18.22362427 -20.354599 17.51174927 C-19.52913455 16.1223029 -18.6828683 14.74496389 -17.81439209 13.38198853 C-16.29223977 10.98377243 -16.29223977 10.98377243 -14.98452759 8.38858032 C-10.97881137 1.4304932 -7.971386 -0.14778607 0 0 Z " fill="#F9E68B" transform="translate(195.33116149902344,309.0195007324219)"/>
</svg>
